<svg height="568" width="1280" xmlns="http://www.w3.org/2000/svg"><path d="m0 0c1.29997925.00303635 1.29997925.00303635 2.6262207.00613403.88405518-.00095672 1.76811035-.00191345 2.67895508-.00289917 1.87296622-.00068184 3.74593478.00117274 5.61889649.00534058 2.87733231.0053482 5.75450851.00005516 8.63183593-.00634766 1.81510452.00066078 3.63020893.00194194 5.4453125.00390625.86665284-.00202423 1.73330567-.00404846 2.62622071-.00613403 6.0713292.02399644 6.0713292.02399644 7.18627929 1.13894653.09417773 2.08619023.11742878 4.17560477.11352539 6.26391602.00014603.65363525.00029206 1.30727051.00044251 1.98071289-.00069907 2.16979238-.00849112 4.33949988-.01631165 6.50927734-.0018642 1.50072686-.00328809 3.00145433-.00428772 4.50218201-.003825 3.95709401-.01365513 7.91415153-.02470398 11.87123108-.01021449 4.03502916-.01479372 8.07006419-.01983642 12.10510254-.01073702 7.92254282-.02781323 15.84505594-.04882813 23.76757812.83144532-1.0828125.83144532-1.0828125 1.6796875-2.1875.72445313-.928125 1.44890625-1.85625 2.1953125-2.8125.71929688-.928125 1.43859375-1.85625 2.1796875-2.8125.64195313-.721875 1.28390625-1.44375 1.9453125-2.1875h2c.22171875-.53109375.4434375-1.0621875.671875-1.609375 1.79220727-3.22597309 4.16359168-5.87398061 6.578125-8.640625 3.75661368-4.35257066 7.34426104-8.72987123 10.62890625-13.45703125.36996094-.42667968.73992188-.85335937 1.12109375-1.29296875h2c.2578125-.56203125.515625-1.1240625.78125-1.703125 1.36044777-2.56392078 2.94663962-4.74913865 4.71875-7.046875.6084375-.79921875 1.216875-1.5984375 1.84375-2.421875.81984375-.90492187.81984375-.90492187 1.65625-1.828125h2c.268125-.57234375.53625-1.1446875.8125-1.734375 1.22882636-2.34447134 2.61272176-4.38967437 4.1875-6.515625.515625-.70640625 1.03125-1.4128125 1.5625-2.140625.474375-.53109375.94875-1.0621875 1.4375-1.609375h2c.268125-.5775.53625-1.155.8125-1.75 1.25034552-2.36907572 2.37455763-4.26967191 4.1875-6.25 2.22099305-.48101806 2.22099305-.48101806 4.83862305-.45410156.98079025.00030212 1.96158051.00060425 2.97209167.00091553 1.584497.03096771 1.584497.03096771 3.20100403.06256103 1.62504204.00848969 1.62504204.00848969 3.28291321.01715088 3.46473634.02241447 6.92844358.07262195 10.39286804.12347412 2.34699029.02005837 4.69399677.03831029 7.04101563.0546875 5.75751337.0441342 11.51442536.11109709 17.27148437.1953125.33.66.66 1.32 1 2-.95043373 1.33897583-1.91059147 2.67105428-2.875 4-.53367187.7425-1.06734375 1.485-1.6171875 2.25-.49757812.5775-.99515625 1.155-1.5078125 1.75-.66 0-1.32 0-2 0-.35578125.81210938-.35578125.81210938-.71875 1.640625-1.62472756 2.99187638-3.63143769 5.47096899-5.78125 8.109375-.7940625.98484375-1.588125 1.9696875-2.40625 2.984375-.6909375.74765625-1.381875 1.4953125-2.09375 2.265625-.66 0-1.32 0-2 0-.24492187.55429688-.48984375 1.10859375-.7421875 1.6796875-1.50985042 2.78525202-3.34948382 5.01523677-5.3828125 7.4453125-3.84822629 4.61911493-7.57878563 9.31042256-11.24609375 14.07421875-.53753906.59425782-1.07507812 1.18851563-1.62890625 1.80078125-.66 0-1.32 0-2 0v2c-.66 0-1.32 0-2 0-.25523437.56332032-.51046875 1.12664063-.7734375 1.70703125-3.87721752 7.24817417-10.15062029 13.44262113-15.66015625 19.48046875-1.63153521 1.73735789-1.63153521 1.73735789-2.56640625 3.8125-.66 0-1.32 0-2 0-.70394612 1.31403276-1.36345658 2.65202571-2 4-.29261718.58652344-.58523437 1.17304688-.88671875 1.77734375-.36752576 2.49527988-.36752576 2.49527988 1.95703125 4.9296875 1.00695779 1.04612385 2.026162 2.08054223 3.0546875 3.10546875 1.10497541 1.1477111 2.20775581 2.29753858 3.30859375 3.44921875.58120606.60376465 1.16241211 1.2075293 1.76123047 1.82958985 3.08818212 3.26527019 6.04347257 6.64314179 8.99267578 10.0336914.56412598.6391333 1.12825196 1.2782666 1.70947266 1.93676758.52255371.60094483 1.04510742 1.20188965 1.58349609 1.82104492.46301514.52996582.92603028 1.05993164 1.40307617 1.60595703 1.11645508 1.51123047 1.11645508 1.51123047 2.11645508 4.51123047h2v2h2c1.56432787 1.69274284 3.05328572 3.45569853 4.5 5.25 1.19109375 1.46179688 1.19109375 1.46179688 2.40625 2.953125 1.68123034 2.24582262 2.97510899 4.2434553 4.09375 6.796875h2v2h2c4 4.47058824 4 4.47058824 4 7 .66386719-.34933593 1.32773438-.69867187 2.01171875-1.05859375.88300782-.45503906 1.76601563-.91007812 2.67578125-1.37890625.87011719-.45246093 1.74023438-.90492187 2.63671875-1.37109375 10.79924207-4.80842165 23.59819874-2.38217898 34.62890625.4453125 1.00546875.11988282 2.0109375.23976563 3.046875.36328125 1.61460034-1.39584739 1.61460034-1.39584739 3-3 2.48828125-.1171875 2.48828125-.1171875 5.3125.125 3.89778615.12325016 6.11273057.14940127 9.0625-2.5.86625-.86625 1.7325-1.7325 2.625-2.625 6.48175633-3.34986344 15.66310963-3.25575631 22.6171875-1.2421875 3.70922627 1.77762919 6.79308344 4.00502617 9.3828125 7.2421875v2h2c4.59225513 8.261959 4.59225513 8.261959 4 13l2.5625.0625c4.80229845 1.30971776 7.46034422 4.01087292 10.4375 7.9375.433125 1.5778125.433125 1.5778125.875 3.1875.82256217 2.88370621.82256217 2.88370621 2.953125 3.8984375 1.55828451.66253593 3.12806933 1.29853243 4.70703125 1.91015625 3.72715777 1.51803415 7.31658146 3.48186507 10.46484375 6.00390625v2h2v2h2v2h2c2 3 2 3 2 6h2c4.35076052 14.37304813 4.79744386 28.79117442-2.1796875 42.43359375-5.10125064 9.49559384-10.84416527 18.60218541-16.8203125 27.56640625-.66 0-1.32 0-2 0-.66 1.98-1.32 3.96-2 6-.66 0-1.32 0-2 0-.66 1.98-1.32 3.96-2 6-.66 0-1.32 0-2 0-.23074218.69351563-.46148437 1.38703125-.69921875 2.1015625-1.57014831 3.4986488-3.735067 6.30197545-6.11328125 9.2734375-.90342047 1.14628764-1.80577492 2.29341629-2.70703125 3.44140625-.43006347.54672364-.86012695 1.09344727-1.30322265 1.65673828-1.46416101 1.89897614-2.82776568 3.85768604-4.1772461 5.83935547-.66.886875-1.32 1.77375-2 2.6875-.66 0-1.32 0-2 0-.3403125 1.051875-.3403125 1.051875-.6875 2.125-1.3125 2.875-1.3125 2.875-3.8125 5.6875-2.50087425 2.83432416-3.10014831 5.3659158-3.83984375 9.0859375-1.22688769 3.9057135-3.8157318 7.19530275-6.66015625 10.1015625-.66 0-1.32 0-2 0-.66 1.65-1.32 3.3-2 5-.66 0-1.32 0-2 0-.66 1.98-1.32 3.96-2 6-.66 0-1.32 0-2 0-.2578125.55171875-.515625 1.1034375-.78125 1.671875-1.39838125 2.67126675-3.00638305 5.09664409-4.71875 7.578125-.6084375.89203125-1.216875 1.7840625-1.84375 2.703125-.5465625.67546875-1.093125 1.3509375-1.65625 2.046875-.66 0-1.32 0-2 0v2c-.66 0-1.32 0-2 0-.28875.598125-.5775 1.19625-.875 1.8125-1.125 2.1875-1.125 2.1875-3.125 5.1875-.66 0-1.32 0-2 0v2c-1.4609375 1.5078125-1.4609375 1.5078125-3.375 3.125-.62648437.53882813-1.25296875 1.07765625-1.8984375 1.6328125-1.7265625 1.2421875-1.7265625 1.2421875-3.7265625 1.2421875v2c-5.4117647 4-5.4117647 4-8 4v2c-2.1032567.98111975-4.20763689 1.95983134-6.3125 2.9375-1.75763672.81791016-1.75763672.81791016-3.55078125 1.65234375-3.50173764 1.57425566-6.34528452 2.52639656-10.1484375 2.7265625-.75732422.04189453-1.51464843.08378907-2.29492187.12695313-.7856836.0393164-1.57136719.07863281-2.38085938.11914062-.79728515.0431836-1.59457031.08636719-2.41601562.13085938-1.96529885.10591431-3.93086934.20676613-5.89648438.30664062-.44988281.969375-.89976562 1.93875-1.36328125 2.9375-6.82589717 14.35879456-15.5415535 28.55279012-26.63671875 40.0625-.66 0-1.32 0-2 0v2c-.66 0-1.32 0-2 0-.23074218.55429688-.46148437 1.10859375-.69921875 1.6796875-1.65616526 2.95424073-3.72528887 5.04657953-6.11328125 7.4453125-.85207031.86882813-1.70414062 1.73765625-2.58203125 2.6328125-2.51445631 2.16386496-4.47243599 3.24096698-7.60546875 4.2421875v2c-4.38461538 3-4.38461538 3-7 3v2c-2.28030217 1.65114747-4.54379134 3.15309735-6.9375 4.625-.71857177.4429541-1.43714355.88590821-2.17749023 1.34228516-23.39894386 14.13828868-50.47631447 22.00700339-77.95532227 16.86865234-6.46794653-1.84552074-12.35573279-5.11996769-17.9296875-8.8359375 0-.66 0-1.32 0-2-.8353125-.309375-.8353125-.309375-1.6875-.625-6.84760786-4.07155062-10.46498324-12.22917472-13.3125-19.375-.98243299-4.99885023-1.15419295-9.92042603-1.125-15-.00580078-1.00933593-.00580078-1.00933593-.01171875-2.0390625.0306674-15.88571405 7.418863-27.81221317 18.13671875-38.9609375 3.56289979-3 3.56289979-3 6-3 0-.66 0-1.32 0-2 2.15520159-1.61716544 4.30417911-3.10115212 6.5625-4.5625.67530762-.44400146 1.35061524-.88800293 2.04638672-1.34545898 5.20844027-3.39641508 10.5208262-6.59768138 15.87890625-9.75073242 5.45935816-3.23991965 10.63830887-6.80860387 15.80517578-10.49365235 2.19980667-1.50145534 4.29096913-2.74630096 6.70703125-3.84765625 0-.66 0-1.32 0-2h2c0-.66 0-1.32 0-2h2l.8125-1.6875c1.1875-2.3125 1.1875-2.3125 2.6875-4.4375 3.05830898-5.86175888 4.19557815-11.55371348 2.4375-18-1.65750553-4.7186644-4.05948354-8.80254984-6.9375-12.875-.48210937.721875-.96421875 1.44375-1.4609375 2.1875-.63164062.928125-1.26328125 1.85625-1.9140625 2.8125-.62648437.928125-1.25296875 1.85625-1.8984375 2.8125-.56976562.721875-1.13953125 1.44375-1.7265625 2.1875-.66 0-1.32 0-2 0-.24621093.87140625-.49242187 1.7428125-.74609375 2.640625-1.33714058 3.58237041-3.00708172 6.07498125-5.31640625 9.109375-2.7011604 3.48095067-2.7011604 3.48095067-4.9375 7.25-.66 0-1.32 0-2 0-.28875.5775-.5775 1.155-.875 1.75-1.04166666 2.08333334-2.08333333 4.16666667-3.125 6.25-.66 0-1.32 0-2 0-.2475.639375-.495 1.27875-.75 1.9375-1.25 2.0625-1.25 2.0625-2.921875 2.9375-3.61975489.19434926-5.96635241-1.83142397-8.828125-3.8125-.60859863-.40806884-1.21719726-.81613769-1.84423828-1.23657226-1.26247795-.84738307-2.52173452-1.69958397-3.77783203-2.55639649-1.80550579-1.22057073-3.62867482-2.40669475-5.46386719-3.58203125-6.27785895-4.05600388-6.27785895-4.05600388-8.4140625-5.6875 0-.66 0-1.32 0-2-.70898437-.26554687-1.41796875-.53109375-2.1484375-.8046875-8.49061487-3.55907966-16.08786167-8.91217816-23.42578125-14.40234375-1.99936612-1.47779235-4.0115713-2.8439407-6.11328125-4.16796875-.763125-.53625-1.52625-1.0725-2.3125-1.625 0-.66 0-1.32 0-2-.71542968-.2371875-1.43085937-.474375-2.16796875-.71875-3.29223536-1.48945269-5.47953972-3.34919847-8.14453125-5.78125-.88300781-.7940625-1.76601562-1.588125-2.67578125-2.40625-2.01171875-2.09375-2.01171875-2.09375-2.01171875-4.09375-.66 0-1.32 0-2 0-6.43354872-7.08684506-10.02382403-15.00760567-13-24-.495-1.485-.495-1.485-1-3-1.06894403-12.06959589.69157543-21.14616761 6-32h2c.103125-.5775.20625-1.155.3125-1.75.79646465-2.60661157 1.87815277-4.2235311 3.6875-6.25h2c0-.66 0-1.32 0-2 10.25186427-7.86038055 19.23445813-9.89757716 32-9 7.165272 1.18426024 13.49595731 4.22717071 19 9v2l4 2v2h2c.66.66 1.32 1.32 2 2 .4125-.83402343.825-1.66804687 1.25-2.52734375 9.23216969-17.99036637 9.23216969-17.99036637 15.98828125-20.20703125.58136719-.08765625 1.16273438-.1753125 1.76171875-.265625 0-.66 0-1.32 0-2 10.47806088-4.97263906 21.98768296-6.04472857 33.0625-2.3125 4.47775042 1.90067654 8.22147115 4.17452008 11.9375 7.3125v2h2v2h2c9.57980367 11.65441084 12.13598752 23.26712772 11.20703125 37.95458985-1.28524937 12.69790003-8.42231736 26.13759248-16.20703125 36.04541015 1.42305295 3.13494337 3.17411611 5.54932258 5.375 8.1875 8.15107498 10.35406821 10.76152014 22.10721352 9.3828125 35.09375-1.07898328 6.25369904-3.89857128 11.69544418-7.7578125 16.71875-.66 0-1.32 0-2 0-.26039062.58265625-.52078125 1.1653125-.7890625 1.765625-4.50987327 8.32144358-13.45932772 13.3479172-21.2109375 18.234375-1.43472656.93199219-1.43472656.93199219-2.8984375 1.8828125-15.29352544 9.89581058-15.29352544 9.89581058-21.1015625 11.1171875v2c-1.69491614 1.40268922-3.457835 2.72390346-5.25 4-.97453125.70125-1.9490625 1.4025-2.953125 2.125-2.796875 1.875-2.796875 1.875-5.03125 2.875-2.30596846 1.30603524-2.71641871 2.59867851-3.765625 5-.9649202 1.40571941-1.94504024 2.80108676-2.9375 4.1875-5.65896404 8.50920021-7.2229943 16.60261931-6.0625 26.8125 1.03204225 3.50987342 2.41822055 6.70939053 4 10 .495 1.485.495 1.485 1 3h2v2c2.92638748 1.50712334 5.88698003 2.82631086 8.9375 4.0625 1.25103516.51240235 1.25103516.51240235 2.52734375 1.03515625 17.50565 6.23082458 37.69011834-.56553196 53.97265625-7.578125 30.80811157-14.96279377 55.15423734-40.66889825 69.5625-71.51953125-.43570312-.3403125-.87140625-.680625-1.3203125-1.03125-11.63632784-9.47025816-16.45743116-21.31569929-18.296875-36.03125-.58076969-6.34254527-.6051206-12.69755872-.6328125-19.0625-.01377685-1.75014404-.01377685-1.75014404-.02783203-3.53564453.06650507-18.91670154.06650507-18.91670154 3.27783203-25.33935547.12741892-1.41200228.20185286-2.82904443.24609375-4.24609375.04930664-1.25586914.04930664-1.25586914.09960938-2.53710937.06105845-1.76549875.11836761-3.53113127.171875-5.296875.03416015-.83853516.06832031-1.67707031.10351562-2.54101563.02505616-.76755615.05011231-1.5351123.07592774-2.32592773.30297851-2.05297852.30297851-2.05297852 2.30297851-5.05297852.33477625-2.90443528.56183291-5.73757808.7109375-8.65234375.1094335-1.81079732.21897599-3.62158805.32861328-5.43237304.05448304-.9548227.10896607-1.90964539.1651001-2.8934021.90856806-15.78405063 2.10089002-31.50338225 3.92034912-47.20938111.08626648-.74490692.17253296-1.48981384.26141358-2.2572937.39430969-3.38307171.79666366-6.76502943 1.20440674-10.14651489.49619336-4.1335631.95802109-8.27000191 1.40917968-12.40869141-.886875.103125-1.77375.20625-2.6875.3125-4.4840786-.42302628-5.40951416-1.91388243-8.3125-5.3125-.92425781-1.01126953-.92425781-1.01126953-1.8671875-2.04296875-5.1328125-5.65846197-5.1328125-5.65846197-5.1328125-7.95703125-.66 0-1.32 0-2 0 0-.66 0-1.32 0-2-.66 0-1.32 0-2 0-1.7265625-1.8984375-1.7265625-1.8984375-3.625-4.375-.63164062-.81210937-1.26328125-1.62421875-1.9140625-2.4609375-1.4609375-2.1640625-1.4609375-2.1640625-1.4609375-4.1640625-.66 0-1.32 0-2 0 0-.66 0-1.32 0-2-.66 0-1.32 0-2 0-1.39325953-1.5524034-2.71380128-3.17029985-4-4.8125-4.06508828-5.08956933-8.30867126-9.90055917-12.73828125-14.6796875-6.26171875-6.94304566-6.26171875-6.94304566-6.26171875-9.5078125-.66 0-1.32 0-2 0 0-.66 0-1.32 0-2-.66 0-1.32 0-2 0-1.7265625-1.96875-1.7265625-1.96875-3.625-4.5-.63164062-.8353125-1.26328125-1.670625-1.9140625-2.53125-.72316406-.97453125-.72316406-.97453125-1.4609375-1.96875-1.30797873 1.08240509-1.30797873 1.08240509-1.11352539 3.69506836.00523682 1.20277588.01047364 2.40555176.01586914 3.64477539.00146027.66178253.00292054 1.32356507.00442505 2.00540161.00381411 1.44108827.00993914 2.8821718.01806641 4.32324219.01270993 2.27709895.01926527 4.55414001.0241394 6.83126831.01145657 4.8334406.03069987 9.66683376.05102539 14.50024414.02354314 5.59855811.04395508 11.19708899.05593872 16.79568482.00651175 2.24970097.01902018 4.49931949.03170777 6.74899292.00363079 1.37182542.00698274 2.74365162.01000976 4.11547851.00523682 1.20277588.01047364 2.40555176.01586914 3.64477539-.11352539 2.69506836-.11352539 2.69506836-1.11352539 3.69506836-2.9453557.10110353-5.86677559.1396928-8.8125.1328125-.88405517.00095673-1.76811035.00191346-2.67895508.00289917-1.87296621.00068185-3.74593478-.00117274-5.61889648-.00534057-2.87733231-.0053482-5.75450852-.00005516-8.63183594.00634765-1.81510451-.00066078-3.63020893-.00194194-5.4453125-.00390625-.86665283.00202423-1.73330566.00404847-2.6262207.00613404-6.0713292-.02399644-6.0713292-.02399644-7.1862793-1.13894654-.09924517-2.23794651-.12632427-4.47909235-.12698364-6.71923828-.00233999-1.06603045-.00233999-1.06603045-.00472724-2.15359688-.00401241-2.39917974-.00081944-4.79829704.00231635-7.19747734-.00135393-1.71278928-.00313382-3.42557826-.00531006-5.1383667-.00457526-4.66515561-.00278439-9.33028922.00037909-13.99544525.00252312-4.87092398.0001862-9.74184602-.00138617-14.61277008-.00182183-8.18148132.00058498-16.36295363.00534058-24.54443359.00544265-9.47316523.00368-18.94630894-.00182641-28.41947365-.00453073-8.11801717-.00518187-16.23602784-.00256133-24.35404587.001563-4.85530258.00175593-9.71059504-.00153649-14.56589699-.00287813-4.56354027-.00090408-9.12705266.00489426-13.6905899.00132791-1.67986505.00093297-3.35973242-.00126266-5.03959656-.00271031-2.28330909.00066812-4.5665274.00568008-6.84983063.00056554-1.92137283.00056554-1.92137283.0011425-3.88156127.22937393-5.17230777 2.74481631-3.95857164 7.31212044-3.97662354zm138.4387207 145.01394653c-.79148437.16242188-1.58296875.32484375-2.3984375.4921875-2.48359852.58309757-2.48359852.58309757-5.2265625 2.6328125 3.84279173 8.63119189 11.42771867 15.69067619 18.25 22.02734375 1.75 1.97265625 1.75 1.97265625 2.75 5.97265625-12.87 0-25.74 0-39 0-3.04011441 17.22731501-5.22016186 34.00068912-6.43261718 51.38232422-.19267195 2.74679783-.39525985 5.49274559-.59863282 8.23876953-1.2992016 14.68796724-1.2992016 14.68796724-.96875 29.37890625.66.66 1.32 1.32 2 2 .21118164 2.11962891.21118164 2.11962891.16015625 4.7265625-.01095703.95003907-.02191406 1.90007813-.03320312 2.87890625-.02126953.99644532-.04253906 1.99289063-.06445313 3.01953125-.10435118 5.83593669-.10196222 11.37893557.74389649 17.16748047.54977199 6.26864859-.15993177 12.67468994-.48999024 18.94580078-.69159481 14.96206346-.34743689 30.07672309 10.08984375 41.84765625 5.14541744 4.56529685 11.81407467 6.26825054 18.5703125 5.984375 10.87953832-2.05221265 19.41777718-8.91300083 27.0234375-16.5703125.76957032-.73347656 1.53914063-1.46695312 2.33203125-2.22265625 5.40282861-5.21874586 10.07853181-10.84154093 14.66796875-16.77734375 2.139115-2.73061271 4.20204616-5.1973474 6.6875-7.625 2.50546794-2.22848845 2.50546794-2.22848845 3.3125-5.375h2c1.55399216-1.68163494 1.55399216-1.68163494 3.0625-3.8125.52722657-.70769531 1.05445313-1.41539062 1.59765625-2.14453125 1.50011777-2.09739586 1.50011777-2.09739586 2.33984375-5.04296875l2.875-.1875c1.546875-.4021875 1.546875-.4021875 3.125-.8125 1.45291274-2.46255684 1.45291274-2.46255684 2-5h2c0-.66 0-1.32 0-2h2c1.44900582-1.6277698 1.44900582-1.6277698 2.8984375-3.76171875.56203125-.78955078 1.1240625-1.57910156 1.703125-2.39257812.58523438-.83595703 1.17046875-1.67191406 1.7734375-2.53320313 1.15250478-1.62971378 2.30612281-3.25864095 3.4609375-4.88671875.54366211-.77005371 1.08732422-1.54010742 1.64746094-2.33349609 1.25181402-1.72698746 2.58177601-3.39703767 3.93066406-5.04931641 1.7903403-1.87522673 1.7903403-1.87522673 1.5859375-4.04296875h2c.66-1.98 1.32-3.96 2-6h2c2.31592023-3.22114157 2.31592023-3.22114157 3-7h2c.66-1.98 1.32-3.96 2-6h2c1.5953994-1.91015961 1.5953994-1.91015961 3.125-4.3125.53882813-.80050781 1.07765625-1.60101562 1.6328125-2.42578125 1.48288533-2.26990581 1.48288533-2.26990581 1.2421875-5.26171875h2c1.46683252-2.68315659 2.92353026-5.37104767 4.375-8.0625.4125-.75216797.825-1.50433593 1.25-2.27929687 4.02233889-7.49322808 5.73569751-14.12147361 5.75-22.59570313.02449219-.75990234.04898438-1.51980468.07421875-2.30273437.0343885-6.71148806-2.02858592-11.52021224-6.01953125-16.86132813-5.93285784-5.81360441-13.20478166-11.04783368-21.4296875-12.8984375-.66.33-1.32.66-2 1-5.72181393.31787856-11.38409876.21424892-17-1v2c-.53625.12375-1.0725.2475-1.625.375-2.43612847.58012041-2.43612847.58012041-4.875 1.6875-6.39351902 1.71254974-12.9687418 1.98491719-19.125-.5625-.78375-.495-1.5675-.99-2.375-1.5-.66 0-1.32 0-2 0 0-.66 0-1.32 0-2-1.83333333-2.16666666-1.83333333-2.16666666-4-4-.66 0-1.32 0-2 0-.10054687-.56847656-.20109375-1.13695312-.3046875-1.72265625-1.33254925-5.46710277-3.00723769-7.92198965-7.7578125-11.02734375-.87785156-.51046875-1.75570312-1.0209375-2.66015625-1.546875-2.27734375-1.703125-2.27734375-1.703125-3.2734375-4.28125-.78362123-2.5770457-.78362123-2.5770457-3.11328125-3.6640625-3.6956557-.96886109-7.34766041-1.46667789-11.140625-1.8828125-.7321875-.08636718-1.464375-.17273437-2.21875-.26171875-4.07540577-.475464-6.93488469-.57368172-10.90625.26171875z" fill="#4217fa" transform="translate(936.186279 85.861053)"/><path d="m0 0h46c2.35588035 5.88970087 4.67672172 11.74469685 6.875 17.6875 2.20503243 5.92883719 4.50736794 11.80808573 6.87670898 17.67333984 2.05952933 5.11907679 4.00504314 10.27606981 5.92797852 15.44775391 1.89362073 5.0823603 3.84541369 10.14011882 5.8203125 15.19140625 2.48711304 6.36140079 4.91149719 12.74270561 7.28979492 19.14550781 2.22528553 5.96104069 4.6033819 11.85564914 7.01098633 17.74511719.9250449 2.39848775 1.61386546 4.6227162 2.19921875 7.109375 3.03352658-6.64697693 5.78847386-13.37904306 8.4375-20.1875.39469482-1.0108667.78938965-2.0217334 1.19604492-3.06323242 2.55532918-6.57572777 4.99189737-13.17824936 7.32739258-19.83520508 1.55370244-4.35737601 3.28997616-8.63224899 5.0390625-12.9140625 3.3581307-8.29486984 6.62743115-16.61129506 9.74291992-25.00048828 2.18955243-5.87370927 4.50886324-11.68986355 6.86254883-17.49951172 1.51893311-3.81222427 2.95363206-7.65760216 4.39453125-11.5h189v37c-.33.33-.66.66-1 1-13.2 0-26.4 0-40 0v138c-13.53 0-27.06 0-41 0-1-1-1-1-1.12304783-3.2626276.00092179-1.00936332.00184359-2.01872664.00279331-3.05867672-.00206199-1.73117066-.00206199-1.73117066-.00416565-3.49731445.00359528-1.27745591.00719056-2.55491181.01089478-3.8710785.00028187-1.34988401.00012414-2.69976817-.00044251-4.0496521-.00028797-3.67545671.00560874-7.35088106.01257396-11.02633023.00623356-3.83705189.00683734-7.67410444.00802541-11.51116061.00311331-7.27087197.0113267-14.54172898.02134949-21.81259435.01116114-8.27555896.01667159-16.55111862.02169543-24.82668323.01046439-17.02797088.02880987-34.05592115.05032361-51.08388221-10.89 0-21.78 0-33 0v138c-13.53 0-27.06 0-41 0-1-1-1-1-1.12304783-3.21577549.00092179-.98724029.00184359-1.97448057.00279331-2.99163723-.00206199-1.69330696-.00206199-1.69330696-.00416565-3.42082214.00359528-1.24940369.00719056-2.49880738.01089478-3.78607178-.00014603-1.30712448-.00029205-2.61424896-.00044251-3.96098328-.00028796-3.59488107.00560862-7.18972905.01257396-10.7846024.00623368-3.7529702.00683735-7.50594108.00802541-11.25891566.00311327-7.11150028.01132661-14.22298527.02134949-21.3344788.01116126-8.09418388.01667162-16.18836848.02169543-24.28255814.0104643-16.65472733.02806367-33.30943926.05032361-49.96415508-.94909383 2.02878994-1.89509527 4.05902667-2.83984375 6.08984375-.527146 1.13042725-1.05429199 2.26085449-1.59741211 3.42553711-1.95964112 4.36962314-3.66048475 8.81320525-5.34790039 13.29321289-2.65855175 6.9840411-5.5748757 13.84853774-8.71484375 20.62890625-1.83894056 3.98820234-3.45904153 8.01256708-5 12.125-1.4619835 3.8804048-3.00996655 7.57968071-4.9375 11.25-2.55946122 4.9263611-4.43021371 10.02220401-6.32958984 15.22705078-1.78765088 4.86695701-3.81478313 9.55824241-6.01806641 14.25341797-1.35966232 3.02972987-2.54287558 6.10003775-3.71484375 9.20703125-1.54458519 4.08832393-3.17217756 8.09269814-5 12.0625-2.64313758 5.74882423-5.06640998 11.59688395-7.5 17.4375-10.89 0-21.78 0-33 0-2.4501518-4.90030359-4.58265747-9.26142362-6.4375-14.3125-1.47264311-4.00743648-3.09590972-7.89467717-4.8828125-11.76953125-3.42681062-7.46403181-6.43601212-15.09122943-9.48632812-22.71484375-2.75617687-6.83375483-5.67892297-13.54933015-8.8322754-20.2097168-1.88915065-4.15477598-3.47623146-8.40586832-5.07983398-12.67700195-1.34407334-3.4790191-2.79614282-6.89535579-4.28125-10.31640625-1.96463735-4.52720781-3.81950803-9.07048366-5.5625-13.6875-1.82198294-4.8028854-3.83261718-9.45849178-5.9921875-14.1171875-4.97997531-11.00978325-9.49403387-22.23181096-13.921875-33.47265625-1.09686241-2.73184993-2.27104924-5.41944307-3.484375-8.1015625-.32863037-.72936768-.65726074-1.45873535-.99584961-2.21020508-.64054706-1.41137218-1.28945705-2.81898686-1.94775391-4.22216797-2.20532599-4.85911967-2.20532599-4.85911967-1.09545898-8.1887207z" fill="#010101" transform="translate(100 86)"/><g fill="#4318fe"><path d="m0 0c1.91464746-.06654026 3.82853247-.1618164 5.74023438-.28710938 15.39956546-.98929407 15.39956546-.98929407 20.04351806 2.59765626 3.13935202 3.48345207 5.28546174 7.39854206 7.25167847 11.63208007 1.92393245 4.08607031 4.28726703 7.93771524 6.6713562 11.76928711 1.25 2.1875 1.25 2.1875 1.25 4.1875h2c.24492187.47566407.48984375.95132813.7421875 1.44140625 3.53599544 6.62084663 7.66091054 12.79446985 11.85546875 19.0078125.60158935.89404541.60158935.89404541 1.21533203 1.80615235.78353435 1.15161177 1.57863262 2.29545047 2.38574219 3.43066406 2.80126953 3.99670791 2.80126953 3.99670791 2.80126953 7.31396484h2l2 6h2c.27175049.51264405.54350098 1.02528809.82348633 1.5534668 3.60600962 6.65775812 7.68572756 12.94905118 11.86401367 19.2590332 1.33920671 2.02604486 2.6765276 4.05333784 4.01171875 6.08203125.5861206.88534424 1.17224121 1.77068848 1.77612305 2.68286133 1.32253521 2.10144387 2.43506402 4.19624516 3.5246582 6.42260742.01030746-1.28817123.02061493-2.57634247.03123474-3.90354919.097551-12.11112544.20026721-24.22219739.30810452-36.33323574.05527888-6.22712421.10870667-12.45425307.15797519-18.68142796.04757049-6.00409752.09991037-12.00813589.1556263-18.01216316.02045681-2.29622306.03916425-4.59246236.05613327-6.88871384.02397063-3.20416224.05403485-6.40821151.08560371-9.61230659.00575547-.95953079.01151093-1.91906159.0174408-2.90766907.00978882-.86803253.01957764-1.73606506.02966309-2.63040161.00645255-.75863563.0129051-1.51727125.01955318-2.29889584.1386652-1.731637.1386652-1.731637 1.1386652-2.731637 2.9453557-.10110353 5.8667756-.13969279 8.8125-.1328125.88405518-.00095672 1.76811035-.00191345 2.67895508-.00289917 1.87296621-.00068184 3.74593478.00117274 5.61889648.00534058 2.87733231.0053482 5.75450852.00005516 8.63183594-.00634766 1.81510451.00066078 3.63020893.00194194 5.4453125.00390625.86665283-.00202423 1.73330566-.00404846 2.6262207-.00613403 6.07132921.02399644 6.07132921.02399644 7.1862793 1.13894653.09924517 2.23794652.12632428 4.47909236.12698364 6.71923828.00155999.71068697.00311998 1.42137394.00472725 2.15359688.0040124 2.39917975.00081944 4.79829704-.00231636 7.19747734.00135394 1.71278928.00313382 3.42557827.00531006 5.1383667.00457526 4.66515562.00278439 9.33028923-.00037909 13.99544525-.00252312 4.87092399-.00018619 9.74184603.00138617 14.61277008.00182184 8.18148133-.00058498 16.36295364-.00534058 24.5444336-.00544264 9.47316523-.00368 18.94630894.00182641 28.41947365.00453073 8.11801717.00518187 16.23602784.00256133 24.35404586-.001563 4.85530259-.00175593 9.71059505.00153649 14.56589699.00287813 4.56354027.00090408 9.12705266-.00489426 13.69058991-.00132791 1.67986504-.00093296 3.35973242.00126267 5.03959655.00271031 2.2833091-.00066813 4.56652741-.00568009 6.84983063-.00056554 1.92137283-.00056554 1.92137283-.0011425 3.88156128-.12584114 2.837677-.12584114 2.837677-1.12584114 3.837677-5.64538495.29254537-11.29331617.31406822-16.94555664.35009766-1.90604872.01655599-3.81203544.04384141-5.71777344.08203125-2.74406227.0547337-5.48666673.07663757-8.23120117.09130859-.85116898.02266938-1.70233795.04533875-2.57929993.06869507-5.92316501-.021173-5.92316501-.021173-9.04838562-2.98031616-1.29263366-2.28458532-2.09552897-4.03160038-2.4777832-6.61181641-.66 0-1.32 0-2 0-1.15625-1.625-1.15625-1.625-2.5-4-2.69181154-4.63698921-5.46564952-9.20735052-8.3125-13.75-.64702881-1.03386841-.64702881-1.03386841-1.30712891-2.08862304-3.07951578-4.90994519-6.20032922-9.79157944-9.34448242-14.6604004-3.21180135-4.9795153-6.37640138-9.98814208-9.53588867-15.00097656-3.67228195-5.82226578-7.34954561-11.64106199-11.0625-17.4375-1.03833984-1.62228515-1.03833984-1.62228515-2.09765625-3.27734375-1.75056046-2.73970972-1.75056046-2.73970972-3.5859375-4.9765625-1.25390625-1.80859375-1.25390625-1.80859375-1.25390625-4.80859375-.66 0-1.32 0-2 0-.66-1.98-1.32-3.96-2-6-.66 0-1.32 0-2 0-1.65-2.97-3.3-5.94-5-9-.33 34.32-.66 68.64-1 104-13.2 0-26.4 0-40 0-2-2-2-2-2.24888897-4.94510746.00054477-1.27261908.00108953-2.54523817.00165081-3.85642147-.00241442-.70745784-.00482883-1.41491568-.00731641-2.14381164-.0056581-2.38232598.00304183-4.76438631.01163465-7.14670044-.00107235-1.70308505-.00301033-3.40616975-.00575257-5.10925293-.00485863-4.63413428.00281973-9.26817267.01295305-13.90229535.00876266-4.84021996.00702341-9.68043676.00663924-14.52066303.00093737-8.12843945.00963164-16.25684163.02326965-24.38526916.01573157-9.41127224.02099797-18.82250364.02026445-28.23378807-.00060937-9.03740682.00448736-18.07480026.01279181-27.11220307.00353975-3.85366545.00536423-7.70732619.00589371-11.56099319.00100114-4.53318984.00707891-9.0663451.01716614-13.59952355.00293222-1.66857631.00414892-3.3371566.00357246-5.00573539-.00048721-2.26793396.00513039-4.53576963.01240921-6.80368996.00167585-1.27224206.00335169-2.54448412.00507832-3.85527897.30620159-6.7109846 12.78713412-4.57023768 18.17184734-4.71868038z" transform="translate(793.043213 85.100586)"/><path d="m0 0c1.29997925.00303635 1.29997925.00303635 2.6262207.00613403.88405518-.00095672 1.76811035-.00191345 2.67895508-.00289917 1.87296622-.00068184 3.74593478.00117274 5.61889649.00534058 2.87733231.0053482 5.75450851.00005516 8.63183593-.00634766 1.81510452.00066078 3.63020893.00194194 5.4453125.00390625.86665284-.00202423 1.73330567-.00404846 2.62622071-.00613403 6.0713292.02399644 6.0713292.02399644 7.18627929 1.13894653.09417773 2.08619023.11742878 4.17560477.11352539 6.26391602.00014603.65363525.00029206 1.30727051.00044251 1.98071289-.00069907 2.16979238-.00849112 4.33949988-.01631165 6.50927734-.0018642 1.50072686-.00328809 3.00145433-.00428772 4.50218201-.003825 3.95709401-.01365513 7.91415153-.02470398 11.87123108-.01021449 4.03502916-.01479372 8.07006419-.01983642 12.10510254-.01073702 7.92254282-.02781323 15.84505594-.04882813 23.76757812.83144532-1.0828125.83144532-1.0828125 1.6796875-2.1875.72445313-.928125 1.44890625-1.85625 2.1953125-2.8125.71929688-.928125 1.43859375-1.85625 2.1796875-2.8125.64195313-.721875 1.28390625-1.44375 1.9453125-2.1875h2c.22171875-.53109375.4434375-1.0621875.671875-1.609375 1.79220727-3.22597309 4.16359168-5.87398061 6.578125-8.640625 3.75661368-4.35257066 7.34426104-8.72987123 10.62890625-13.45703125.36996094-.42667968.73992188-.85335937 1.12109375-1.29296875h2c.2578125-.56203125.515625-1.1240625.78125-1.703125 1.36044777-2.56392078 2.94663962-4.74913865 4.71875-7.046875.6084375-.79921875 1.216875-1.5984375 1.84375-2.421875.5465625-.60328125 1.093125-1.2065625 1.65625-1.828125h2c.268125-.57234375.53625-1.1446875.8125-1.734375 1.22882636-2.34447134 2.61272176-4.38967437 4.1875-6.515625.515625-.70640625 1.03125-1.4128125 1.5625-2.140625.474375-.53109375.94875-1.0621875 1.4375-1.609375h2c.268125-.5775.53625-1.155.8125-1.75 1.25034552-2.36907572 2.37455763-4.26967191 4.1875-6.25 2.22099305-.48101806 2.22099305-.48101806 4.83862305-.45410156.98079025.00030212 1.96158051.00060425 2.97209167.00091553 1.584497.03096771 1.584497.03096771 3.20100403.06256103 1.62504204.00848969 1.62504204.00848969 3.28291321.01715088 3.46473634.02241447 6.92844358.07262195 10.39286804.12347412 2.34699029.02005837 4.69399677.03831029 7.04101563.0546875 5.75751337.0441342 11.51442536.11109709 17.27148437.1953125.33.66.66 1.32 1 2-.95043373 1.33897583-1.91059147 2.67105428-2.875 4-.53367187.7425-1.06734375 1.485-1.6171875 2.25-.49757812.5775-.99515625 1.155-1.5078125 1.75-.66 0-1.32 0-2 0-.35578125.81210938-.35578125.81210938-.71875 1.640625-1.62472756 2.99187638-3.63143769 5.47096899-5.78125 8.109375-.7940625.98484375-1.588125 1.9696875-2.40625 2.984375-.6909375.74765625-1.381875 1.4953125-2.09375 2.265625-.66 0-1.32 0-2 0-.24492187.55429688-.48984375 1.10859375-.7421875 1.6796875-1.50985042 2.78525202-3.34948382 5.01523677-5.3828125 7.4453125-3.84822629 4.61911493-7.57878563 9.31042256-11.24609375 14.07421875-.53753906.59425782-1.07507812 1.18851563-1.62890625 1.80078125-.66 0-1.32 0-2 0v2c-.66 0-1.32 0-2 0-.25523437.56332032-.51046875 1.12664063-.7734375 1.70703125-3.87721752 7.24817417-10.15062029 13.44262113-15.66015625 19.48046875-1.63153521 1.73735789-1.63153521 1.73735789-2.56640625 3.8125-.66 0-1.32 0-2 0-.70394612 1.31403276-1.36345658 2.65202571-2 4-.29261718.58652344-.58523437 1.17304688-.88671875 1.77734375-.36752576 2.49527988-.36752576 2.49527988 1.95703125 4.9296875 1.00695779 1.04612385 2.026162 2.08054223 3.0546875 3.10546875 1.10497541 1.1477111 2.20775581 2.29753858 3.30859375 3.44921875.58120606.60376465 1.16241211 1.2075293 1.76123047 1.82958985 3.08818212 3.26527019 6.04347257 6.64314179 8.99267578 10.0336914.56412598.6391333 1.12825196 1.2782666 1.70947266 1.93676758.52255371.60094483 1.04510742 1.20188965 1.58349609 1.82104492.46301514.52996582.92603028 1.05993164 1.40307617 1.60595703 1.11645508 1.51123047 1.11645508 1.51123047 2.11645508 4.51123047h2v2h2c1.56432787 1.69274284 3.05328572 3.45569853 4.5 5.25.7940625.97453125 1.588125 1.9490625 2.40625 2.953125 1.68123034 2.24582262 2.97510899 4.2434553 4.09375 6.796875h2v2h2c4 4.47058824 4 4.47058824 4 7 .66386719-.34933593 1.32773438-.69867187 2.01171875-1.05859375.88300782-.45503906 1.76601563-.91007812 2.67578125-1.37890625.87011719-.45246093 1.74023438-.90492187 2.63671875-1.37109375 10.79924207-4.80842165 23.59819874-2.38217898 34.62890625.4453125 1.00546875.11988282 2.0109375.23976563 3.046875.36328125 1.74008896-1.3335741 1.74008896-1.3335741 3-3 3.85646386-.2804701 7.30516081-.18234854 11 1v2l2.375.8125c2.625 1.1875 2.625 1.1875 4.625 4.1875.67226891 6.94677871.67226891 6.94677871-1.875 10.9375-3.79812338 3.68641388-7.15395857 3.51420093-12.28125 3.48046875-3.88318098-.57074226-5.87511316-2.0957669-8.69921875-4.71484375-1.14453125-1.703125-1.14453125-1.703125-1.14453125-5.703125-12.09257756-2.40915955-22.14733244-3.95088918-34 0 5.87261665 7.93705186 12.37331546 16.07063961 19.828125 22.6015625 1.171875 1.3984375 1.171875 1.3984375 1.171875 5.3984375-13.2.33-26.4.66-40 1 .33-1.65.66-3.3 1-5-2.31 0-4.62 0-7 0v2c-3.51824511 2.34549675-4.85775694 2.57991403-9 2-2.4375-2-2.4375-2-5-5-.61617187-.67417968-1.23234375-1.34835937-1.8671875-2.04296875-5.1328125-5.65846197-5.1328125-5.65846197-5.1328125-7.95703125-.66 0-1.32 0-2 0 0-.66 0-1.32 0-2-.66 0-1.32 0-2 0-1.7265625-1.8984375-1.7265625-1.8984375-3.625-4.375-.94746093-1.21816406-.94746093-1.21816406-1.9140625-2.4609375-1.4609375-2.1640625-1.4609375-2.1640625-1.4609375-4.1640625-.66 0-1.32 0-2 0 0-.66 0-1.32 0-2-.66 0-1.32 0-2 0-1.39325953-1.5524034-2.71380128-3.17029985-4-4.8125-4.06508828-5.08956933-8.30867126-9.90055917-12.73828125-14.6796875-6.26171875-6.94304566-6.26171875-6.94304566-6.26171875-9.5078125-.66 0-1.32 0-2 0 0-.66 0-1.32 0-2-.66 0-1.32 0-2 0-1.7265625-1.96875-1.7265625-1.96875-3.625-4.5-.63164062-.8353125-1.26328125-1.670625-1.9140625-2.53125-.48210937-.6496875-.96421875-1.299375-1.4609375-1.96875-1.30797873 1.08240509-1.30797873 1.08240509-1.11352539 3.69506836.00523682 1.20277588.01047364 2.40555176.01586914 3.64477539.00146027.66178253.00292054 1.32356507.00442505 2.00540161.00381411 1.44108827.00993914 2.8821718.01806641 4.32324219.01270993 2.27709895.01926527 4.55414001.0241394 6.83126831.01145657 4.8334406.03069987 9.66683376.05102539 14.50024414.02354314 5.59855811.04395508 11.19708899.05593872 16.79568482.00651175 2.24970097.01902018 4.49931949.03170777 6.74899292.00363079 1.37182542.00698274 2.74365162.01000976 4.11547851.00523682 1.20277588.01047364 2.40555176.01586914 3.64477539-.11352539 2.69506836-.11352539 2.69506836-1.11352539 3.69506836-2.9453557.10110353-5.86677559.1396928-8.8125.1328125-1.32608276.00143509-1.32608276.00143509-2.67895508.00289917-1.87296621.00068185-3.74593478-.00117274-5.61889648-.00534057-2.87733231-.0053482-5.75450852-.00005516-8.63183594.00634765-1.81510451-.00066078-3.63020893-.00194194-5.4453125-.00390625-.86665283.00202423-1.73330566.00404847-2.6262207.00613404-6.0713292-.02399644-6.0713292-.02399644-7.1862793-1.13894654-.09924517-2.23794651-.12632427-4.47909235-.12698364-6.71923828-.00155999-.71068697-.00311998-1.42137394-.00472724-2.15359688-.00401241-2.39917974-.00081944-4.79829704.00231635-7.19747734-.00135393-1.71278928-.00313382-3.42557826-.00531006-5.1383667-.00457526-4.66515561-.00278439-9.33028922.00037909-13.99544525.00252312-4.87092398.0001862-9.74184602-.00138617-14.61277008-.00182183-8.18148132.00058498-16.36295363.00534058-24.54443359.00544265-9.47316523.00368-18.94630894-.00182641-28.41947365-.00453073-8.11801717-.00518187-16.23602784-.00256133-24.35404587.001563-4.85530258.00175593-9.71059504-.00153649-14.56589699-.00287813-4.56354027-.00090408-9.12705266.00489426-13.6905899.00132791-1.67986505.00093297-3.35973242-.00126266-5.03959656-.00271031-2.28330909.00066812-4.5665274.00568008-6.84983063.00037703-1.28091522.00075405-2.56183044.0011425-3.88156127.22937393-5.17230777 2.74481631-3.95857164 7.31212044-3.97662354z" transform="translate(936.186279 85.861053)"/><path d="m0 0c1.29997925.00303635 1.29997925.00303635 2.6262207.00613403.88405518-.00095672 1.76811035-.00191345 2.67895508-.00289917 1.87296622-.00068184 3.74593478.00117274 5.61889649.00534058 2.87733231.0053482 5.75450851.00005516 8.63183593-.00634766 1.81510452.00066078 3.63020893.00194194 5.4453125.00390625.86665284-.00202423 1.73330567-.00404846 2.62622071-.00613403 6.0713292.02399644 6.0713292.02399644 7.18627929 1.13894653.09636838 1.78427187.12187453 3.57239653.12025452 5.35926819.00137466 1.16252793.00274933 2.32505585.00416565 3.52281189-.00539291 1.93020996-.00539291 1.93020996-.01089478 3.89941406-.00028187 1.35973611-.00012414 2.71947236.00044251 4.07920838.00028798 3.70231526-.00560877 7.4045984-.01257396 11.10690617-.00623351 3.86507912-.00683733 7.7301589-.00802541 11.59524227-.00311332 7.32399587-.01132672 14.64797688-.02134949 21.9719662-.0111611 8.33601732-.01667158 16.67203533-.02169543 25.00805825-.01046442 17.15238494-.02880991 34.30474941-.05032361 51.45712459h57c-.00523681-4.17519287-.01047363-8.35038574-.01586914-12.65209961-.01653195-13.75832607-.02765132-27.51665199-.03594303-41.27498531-.00516312-8.34584337-.01220613-16.69167734-.02362728-25.03751469-.00994634-7.27158808-.01641385-14.54316938-.01864904-21.81476408-.00130719-3.85263152-.00439358-7.70524359-.01164156-11.5578689-.00675943-3.62209412-.00888707-7.24416069-.00737763-10.86626053-.00040868-1.97147916-.00580429-3.94295529-.01131248-5.9144268.00137466-1.16252792.00274933-2.32505585.00416565-3.52281189-.0009218-1.01673766-.00184359-2.03347532-.00279332-3.08102321.12304783-2.27824498.12304783-2.27824498 1.12304783-3.27824498 2.95705321-.08868299 5.89065057-.11520296 8.84765625-.09765625 1.32964028.00212242 1.32964028.00212242 2.68614197.00428772 2.84293433.00561638 5.68579109.01817162 8.52870178.03086853 1.92252491.0050129 3.84505105.00957617 5.76757813.01367188 4.72333737.01105072 9.44661645.0283263 14.16992187.04882812.1771185 22.65216107.34280309 45.30437987.49477578 67.95672417.07082756 10.51724008.14543445 21.03442828.22885704 31.55157661.07267894 9.16388639.13834992 18.32779122.19551122 27.49178803.03052981 4.85484408.06463262 9.70960513.10712015 14.5643605.03984233 4.56513501.070347 9.13023518.09354973 13.69548416.01020761 1.67946982.02388839 3.3589225.04122162 5.0383339.02307717 2.28522752.03389013 4.57018723.04150963 6.85551071.00921793 1.28129225.01843586 2.56258449.02793312 3.88270378-.23047829 2.96351814-.23047829 2.96351814-2.23047829 4.96351814-2.39849949.24888897-2.39849949.24888897-5.47279358.24723816-1.74368614.00629174-1.74368614.00629174-3.52259826.01271057-1.92246048-.00842926-1.92246048-.00842926-3.88375855-.0170288-1.35826204.00107249-2.71652363.00301068-4.07478332.00575256-3.69409077.00485633-7.38806114-.00281676-11.08213735-.01295304-3.8592671-.00876621-7.71853026-.00702335-11.57780528-.00663925-6.48069786-.00093719-12.96134895-.00962919-19.44203186-.02326965-7.50266956-.01573273-15.00528791-.02099791-22.50797278-.02026445-7.20600788.00060943-14.41199902-.00448776-21.61800188-.01279181-3.07216141-.00353904-6.1443169-.00536413-9.21648025-.00589371-3.6139248-.00100136-7.22780625-.00708092-10.84171677-.01716613-1.9666811-.00433493-3.93337108-.0037518-5.90005684-.00305748-1.7394564-.00639748-1.7394564-.00639748-3.51405334-.0129242-1.01414002-.00167584-2.02828005-.00335169-3.07315159-.00507831-2.27265835-.12863446-2.27265835-.12863446-3.27265835-1.12863446-.09924517-2.23794651-.12632427-4.47909235-.12698364-6.71923828-.00155999-.71068697-.00311998-1.42137394-.00472724-2.15359688-.00401241-2.39917974-.00081944-4.79829704.00231635-7.19747734-.00135393-1.71278928-.00313382-3.42557826-.00531006-5.1383667-.00457526-4.66515561-.00278439-9.33028922.00037909-13.99544525.00252312-4.87092398.0001862-9.74184602-.00138617-14.61277008-.00182183-8.18148132.00058498-16.36295363.00534058-24.54443359.00544265-9.47316523.00368-18.94630894-.00182641-28.41947365-.00453073-8.11801717-.00518187-16.23602784-.00256133-24.35404587.001563-4.85530258.00175593-9.71059504-.00153649-14.56589699-.00287813-4.56354027-.00090408-9.12705266.00489426-13.6905899.00132791-1.67986505.00093297-3.35973242-.00126266-5.03959656-.00271031-2.28330909.00066812-4.5665274.00568008-6.84983063.00037703-1.28091522.00075405-2.56183044.0011425-3.88156127.22937393-5.17230777 2.74481631-3.95857164 7.31212044-3.97662354z" transform="translate(639.186279 85.861053)"/></g><path d="m0 0h38c4.49755833 8.99511666 4.49755833 8.99511666 5.7109375 12.19140625.27175049.70842041.54350098 1.41684082.82348633 2.14672852.27739013.73404052.55478027 1.46808105.84057617 2.22436523.61530775 1.60438833 1.23120097 3.20855224 1.84765625 4.8125.45270264 1.18142578.45270264 1.18142578.91455078 2.38671875 1.92974325 5.00619302 3.94714278 9.97760492 5.94824219 14.95556641 1.08188267 2.70037453 2.15647432 5.40360617 3.23095703 8.10693359 4.23277913 10.63682326 8.51935622 21.2417755 12.99560547 31.77856445 2.22711988 5.25775191 4.32496351 10.55178303 6.34423828 15.89331055 2.07021225 5.3981988 4.23917793 10.75644663 6.39575195 16.12060547 2.28643097 5.69792254 4.50860099 11.41318591 6.6472168 17.16845703 1.13263393 2.79927244 2.35319506 5.51835656 3.62109375 8.2578125 2.88729161 6.30405331 5.39558113 12.73074952 7.8671875 19.20703125.43763672 1.13179687.87527344 2.26359375 1.32617188 3.4296875 2.06821792 5.39315453 4.03927589 10.72612176 5.48632812 16.3203125-1 1-1 1-2.75270081 1.12025452-.76166976-.00222061-1.52333953-.00444123-2.30809021-.00672913-.8608168-.00007553-1.7216336-.00015106-2.60853576-.00022888-.93541123-.00516129-1.87082245-.01032257-2.83457947-.01564026-.95301498-.00141495-1.90602997-.0028299-2.88792419-.00428772-3.05692121-.00561701-6.11377033-.01817237-9.17066956-.03086853-2.06705624-.00501281-4.13411362-.00957609-6.20117188-.01367188-5.078804-.01105156-10.15755382-.02832757-15.23632812-.04882812-.63449324-1.41486685-1.26760337-2.83035399-1.90014648-4.24609375-.52907204-1.18227173-.52907204-1.18227173-1.0688324-2.38842773-1.48690975-3.41142679-2.8039545-6.87565402-4.09352112-10.36547852-.24298828-.64710938-.48597656-1.29421875-.73632812-1.9609375-1.85581503-4.9816573-3.51765128-9.98850069-5.20117188-15.0390625-21.12 0-42.24 0-64 0-2.31 6.93-4.62 13.86-7 21-4.6 11.6-4.6 11.6-6 13-1.38160115.0927833-2.76788038.11747043-4.15258789.11352539-.88083756-.00007553-1.76167511-.00015106-2.66920471-.00022888-.95728501-.00516129-1.91457001-.01032257-2.90086365-.01564026-.97521103-.00141495-1.95042206-.0028299-2.95518494-.00428772-3.12825024-.0056172-6.25643004-.0181726-9.38465881-.03086853-2.11523334-.00501278-4.23046781-.00957607-6.34570312-.01367188-5.19728984-.01105181-10.39453833-.02780666-15.59179688-.04882812.6271803-4.90989475 1.53020421-8.62862955 3.75-13.0625 2.69874018-5.6164712 4.88750437-11.25889574 6.87890625-17.16015625 1.49074777-4.26382692 3.28012292-8.40169029 5.03100586-12.5637207 2.61852376-6.27940029 5.0943611-12.61703776 7.59008789-18.94604493 1.99871746-5.03114659 4.05592209-10.00767402 6.32421875-14.92382812 2.31244825-5.016921 4.31699444-10.10396159 6.23828125-15.28125 9.89334427-26.28267784 9.89334427-26.28267784 14.8125-36.8125 2.24166615-4.80357031 4.09476192-9.72474132 5.92749023-14.69384766 2.13066159-5.75989978 4.36113467-11.47633486 6.63500977-17.18115234.33298096-.84103271.66596191-1.68206543 1.0090332-2.54858398.4808606-1.20184937.4808606-1.20184937.97143555-2.42797852.28125732-.70463379.56251465-1.40926758.85229492-2.13525391 1.21454802-2.80559683 2.61251283-5.52873659 3.97973633-8.26318359zm19 58c-2.51994346 5.23909193-4.93888868 10.38721827-6.5 16-1.01819986 3.64711138-2.32283422 6.94935649-3.9375 10.375-4.65528371 9.45194582-4.65528371 9.45194582-6.5625 19.625h34c-1.3531364-5.4125456-2.76724739-10.41081926-4.75-15.5703125-.2587793-.68472382-.51755859-1.36944763-.78417969-2.07492065-.81774832-2.16153989-1.6414874-4.32073059-2.46582031-6.47976685-.82316385-2.16660204-1.64504204-4.33368332-2.46582031-6.50119019-.50812558-1.34073094-1.01779459-2.68087837-1.52929688-4.0203247-1.42857496-3.75659795-2.76062349-7.53193628-4.00488281-11.35348511-.33 0-.66 0-1 0z" fill="#010101" transform="translate(464 86)"/><path d="m0 0c2.59103531 1.52280146 4.68799133 3.04763713 7 5v2h2v2h2c9.57980367 11.65441083 12.13598752 23.26712772 11.20703125 37.95458984-1.38109803 13.64485763-9.31994111 27.12482382-17.20703125 38.04541016-2.94163796-1.3881887-5.52895726-3.0057878-8.1875-4.875-4.39048052-2.97560806-8.90079195-5.1510275-13.8125-7.125-.03738281.58007812-.07476563 1.16015625-.11328125 1.7578125-.42575542 5.05897614-1.25810866 8.78497908-3.88671875 13.2421875.72832031.10570312 1.45664062.21140625 2.20703125.3203125 3.02357416.73580686 4.92059135 1.80753858 7.48046875 3.5546875.76699219.51304687 1.53398438 1.02609375 2.32421875 1.5546875 1.98828125 1.5703125 1.98828125 1.5703125 3.98828125 4.5703125-1.11631414 1.83863505-2.24329627 3.67079723-3.375 5.5-.62648438 1.0209375-1.25296875 2.041875-1.8984375 3.09375-.56976562.7940625-1.13953125 1.588125-1.7265625 2.40625-.66 0-1.32 0-2 0-.24621094.87140625-.49242187 1.7428125-.74609375 2.640625-1.33714058 3.5823704-3.00708172 6.07498124-5.31640625 9.109375-2.7011604 3.48095067-2.7011604 3.48095067-4.9375 7.25-.66 0-1.32 0-2 0-.28875.5775-.5775 1.155-.875 1.75-1.04166667 2.08333333-2.08333333 4.16666667-3.125 6.25-.66 0-1.32 0-2 0-.37125.9590625-.37125.9590625-.75 1.9375-1.25 2.0625-1.25 2.0625-2.921875 2.9375-3.61975489.19434926-5.96635241-1.83142398-8.828125-3.8125-.60859863-.40806885-1.21719727-.8161377-1.84423828-1.23657227-1.26247796-.84738306-2.52173452-1.69958396-3.77783203-2.55639648-1.80550579-1.22057074-3.62867482-2.40669475-5.46386719-3.58203125-6.27785895-4.05600388-6.27785895-4.05600388-8.4140625-5.6875 0-.66 0-1.32 0-2-.70898438-.26554687-1.41796875-.53109375-2.1484375-.8046875-8.49061488-3.55907966-16.08786167-8.91217816-23.42578125-14.40234375-1.99936613-1.47779235-4.0115713-2.8439407-6.11328125-4.16796875-.763125-.53625-1.52625-1.0725-2.3125-1.625 0-.66 0-1.32 0-2-.71542969-.2371875-1.43085937-.474375-2.16796875-.71875-3.29223536-1.48945269-5.47953972-3.34919847-8.14453125-5.78125-.88300781-.7940625-1.76601563-1.588125-2.67578125-2.40625-2.01171875-2.09375-2.01171875-2.09375-2.01171875-4.09375-.66 0-1.32 0-2 0-6.43354872-7.08684506-10.02382404-15.00760567-13-24-.33-.99-.66-1.98-1-3-1.06894403-12.06959589.69157543-21.14616762 6-32h2c.103125-.5775.20625-1.155.3125-1.75.79646465-2.60661158 1.87815277-4.2235311 3.6875-6.25h2c0-.66 0-1.32 0-2 10.25186427-7.86038056 19.23445813-9.89757716 32-9 7.16527199 1.18426023 13.4959573 4.2271707 19 9v2l4 2v2h2c.99.99.99.99 2 2 .4125-.83402344.825-1.66804688 1.25-2.52734375 9.23216969-17.99036637 9.23216969-17.99036637 15.98828125-20.20703125.58136719-.08765625 1.16273438-.1753125 1.76171875-.265625 0-.66 0-1.32 0-2 12.19582013-5.78784684 25.86720763-6.26793758 38 0z" fill="#bde2f7" transform="translate(964 294)"/><path d="m0 0c2.81800429 1.73132289 5.23470877 3.65276097 7.3125 6.25v2h2c4.59225513 8.261959 4.59225513 8.261959 4 13l2.5625.0625c4.80229845 1.30971776 7.46034422 4.01087292 10.4375 7.9375.28875 1.051875.5775 2.10375.875 3.1875.82256217 2.88370621.82256217 2.88370621 2.953125 3.8984375 1.5582845.66253593 3.12806933 1.29853243 4.70703125 1.91015625 3.72715776 1.51803415 7.31658145 3.48186507 10.46484375 6.00390625v2h2v2h2v2h2c2 3 2 3 2 6h2c4.35076051 14.37304813 4.79744386 28.79117441-2.1796875 42.43359375-5.10125064 9.49559383-10.84416527 18.60218541-16.8203125 27.56640625-.66 0-1.32 0-2 0-.66 1.98-1.32 3.96-2 6-.66 0-1.32 0-2 0-.66 1.98-1.32 3.96-2 6-.66 0-1.32 0-2 0-.23074219.69351563-.46148438 1.38703125-.69921875 2.1015625-1.57014832 3.4986488-3.735067 6.30197545-6.11328125 9.2734375-.90342048 1.14628764-1.80577493 2.29341629-2.70703125 3.44140625-.64509521.82008545-.64509521.82008545-1.30322266 1.65673828-1.464161 1.89897613-2.82776568 3.85768604-4.17724609 5.83935547-.66.886875-1.32 1.77375-2 2.6875-.66 0-1.32 0-2 0-.226875.70125-.45375 1.4025-.6875 2.125-1.3125 2.875-1.3125 2.875-3.8125 5.6875-2.50087426 2.83432416-3.10014832 5.3659158-3.83984375 9.0859375-1.2268877 3.9057135-3.81573181 7.19530274-6.66015625 10.1015625-.66 0-1.32 0-2 0-.66 1.65-1.32 3.3-2 5-.66 0-1.32 0-2 0-.66 1.32-1.32 2.64-2 4-8.01642178-1.96629213-8.01642178-1.96629213-10-5 0-1.32 0-2.64 0-4-2.97898331 2.82773251-5.34500983 5.75613574-7.6875 9.125-4.07255383 5.6714083-8.52096341 10.8040256-13.3125 15.875-1.08087891 1.17755859-1.08087891 1.17755859-2.18359375 2.37890625-8.89450961 9.37015184-18.14169072 15.49930487-31.25390625 15.99609375-7.95675927-.15494262-12.57007732-2.30852179-18.3125-7.6875-9.81636151-10.57489854-10.73245952-23.35327925-10.5-37.25.00515625-1.23685547.0103125-2.47371094.015625-3.74804688.06156992-7.27679502.43452417-14.45638345 1.234375-21.68945312-.66.33-1.32.66-2 1-3.5.1875-3.5.1875-7 0-.66-.66-1.32-1.32-2-2-2.52201469 23.54564643-3.74389695 49.70045939 10.33984375 70.015625 2.52967772 3.0237089 5.31916684 4.91296157 8.66015625 6.984375-3.3829828 23.25265393-29.74212577 48.75836598-47.85864258 62.39868164-20.25798124 14.69309494-46.02455769 27.71120173-71.75463867 24.24975586-2.49988698-.44762771-4.93011018-1.00650963-7.38671875-1.6484375-.67675781-.15984375-1.35351562-.3196875-2.05078125-.484375-7.21325566-2.13940248-13.56029463-7.58424594-17.4375-13.96484375-.9860263-2.16925787-1.81903936-4.27234528-2.51171875-6.55078125-.19078125-.62003906-.3815625-1.24007813-.578125-1.87890625-.5512469-2.7715469-.59202597-5.42167129-.609375-8.24609375-.01417969-1.05445313-.02835938-2.10890625-.04296875-3.1953125.23046875-2.6796875.23046875-2.6796875 2.23046875-4.6796875.27263672 1.95292969.27263672 1.95292969.55078125 3.9453125.25336593 1.72664187.50730235 3.4532001.76171875 5.1796875.11794922.8559375.23589844 1.711875.35742188 2.59375.74632243 4.97548287 1.81685812 8.84774126 4.33007812 13.28125l1 3h2v2c2.92638747 1.50712334 5.88698003 2.82631086 8.9375 4.0625.83402344.34160156 1.66804687.68320312 2.52734375 1.03515625 17.50564999 6.23082457 37.69011833-.56553196 53.97265625-7.578125 30.80811157-14.96279377 55.15423734-40.66889826 69.5625-71.51953125-.43570312-.3403125-.87140625-.680625-1.3203125-1.03125-11.63632785-9.47025816-16.45743116-21.31569929-18.296875-36.03125-.58076969-6.34254527-.6051206-12.69755873-.6328125-19.0625-.00918457-1.1667627-.01836914-2.33352539-.02783203-3.53564453.06650507-18.91670154.06650507-18.91670154 3.27783203-25.33935547.12741891-1.41200228.20185285-2.82904443.24609375-4.24609375.04930664-1.25586914.04930664-1.25586914.09960937-2.53710937.06105846-1.76549876.11836762-3.53113127.171875-5.296875.03416016-.83853516.06832032-1.67707032.10351563-2.54101563.03758423-1.15133423.03758423-1.15133423.07592773-2.32592773.30297852-2.05297852.30297852-2.05297852 2.30297852-5.05297852.33477631-2.90443585.56184865-5.73757649.7109375-8.65234375.1093413-1.81063521.2188029-3.62126315.32836914-5.43188477.05447296-.95480255.10894592-1.9096051.16506958-2.89334106.90719628-15.73777034 2.08329692-31.4205267 3.85812378-47.08493042.08199646-.73636688.16399292-1.47273376.24847412-2.23141479.93026734-8.29478652 2.05050325-16.51780392 3.68902588-24.70608521h2c0-.66 0-1.32 0-2h7c.2020467 6.06140112-.33242083 11.55595554-1.40820312 17.51708984-2.13104974 12.54189583-3.13996967 25.18593017-4.02441407 37.86523438-.19267195 2.74679783-.39525984 5.49274559-.59863281 8.23876953-1.29920161 14.68796723-1.29920161 14.68796723-.96875 29.37890625l2 2c.21118164 2.11962891.21118164 2.11962891.16015625 4.7265625-.01643555 1.42505859-.01643555 1.42505859-.03320313 2.87890625-.02126953.99644531-.04253906 1.99289062-.06445312 3.01953125-.10435119 5.83593668-.10196222 11.37893557.74389648 17.16748047.54977199 6.26864859-.15993176 12.67468994-.48999023 18.94580078-.6313092 13.65783563-.83997158 29.30109369 8.68359375 40.26171875 5.85791506 4.60837936 11.30902131 6.55361284 18.765625 6.46484375 10.93735537-1.5719146 19.69601808-8.87377105 27.234375-16.46484375l2.109375-2c5.14275173-4.94342027 9.51006221-10.38268349 13.890625-16 3.12603275-3.89904629 6.46563202-7.46563202 10-11l1-2h2l.6875-2.125c1.95012178-4.27169532 4.55037313-7.71703092 8.5-10.3125 1.8125-.5625 1.8125-.5625 3.8125.4375l2-5h2c0-.66 0-1.32 0-2h2c.41886475-.88292725.41886475-.88292725.84619141-1.78369141 1.07260062-2.06031918 2.22802736-3.819348 3.61474609-5.67724609.47179688-.63679687.94359375-1.27359375 1.4296875-1.9296875.73476562-.98226562.73476562-.98226562 1.484375-1.984375.96742731-1.29852542 1.93359152-2.59799292 2.8984375-3.8984375.46374023-.62358398.92748047-1.24716797 1.40527344-1.88964844 1.24888188-1.73625042 2.40349103-3.50731717 3.54785156-5.31347656.58523438-.83273437 1.17046875-1.66546875 1.7734375-2.5234375h2c.66-1.98 1.32-3.96 2-6h2l.9375-2.375c1.0625-2.625 1.0625-2.625 2.0625-4.625h2c.66-1.98 1.32-3.96 2-6h2c.2475-.680625.495-1.36125.75-2.0625 1.49197908-3.50615083 3.31835511-6.65370368 5.25-9.9375h2c.268125-.70382812.53625-1.40765625.8125-2.1328125 1.67306834-4.03957948 3.72720687-7.86072616 5.75-11.734375 2.93209519-6.39005527 3.80080897-12.14337733 3.8125-19.0703125.02449219-.75990234.04898437-1.51980469.07421875-2.30273438.03512891-6.85599135-1.98510202-11.86137881-6.421875-17.08007812-5.44643829-4.70327942-11.23492225-9.1231698-18.02734375-11.6796875-2.01728924.28941312-2.01728924.28941312-4 1-5.98130719.38851391-11.41107387.41683292-17-2v2c-7.29584352 3.61563927-13.85645462 5.16017633-22 4-2.98339932-1.06484407-5.28219473-2.32750445-8-4 0-.66 0-1.32 0-2-1.32-.66-2.64-1.32-4-2 0-.66 0-1.32 0-2-.66 0-1.32 0-2 0-2.475-5.445-2.475-5.445-5-11 1.588125-.2475 3.17625-.495 4.8125-.75 3.16865966-.49381709 4.71520746-.76949368 6.984375-3.078125 1.8777048-3.38962295 1.92327324-6.40077617 1.203125-10.171875-1.87015094-2.43119623-3.28138345-3.64069173-6-5 .3259949-3.04261908.97895261-3.9801219 3.25-6.125 7.57152652-5.16240444 19.04183902-6.14858092 27.4375-2.125z" fill="#050409" transform="translate(1148.6875 216.75)"/><path d="m0 0c9.57926752 5.89108264 13.74354603 12.88298183 17.2421875 23.37890625 1.1147404 10.03266358-1.00634321 19.40073017-6.9140625 27.68359375-6.30649259 7.00327736-14.55926512 10.55901304-23.8125 11.6328125-6.87991221.30039053-12.14230811-1.29543159-18.2734375-4.31640625-1.36125-.61875-1.36125-.61875-2.75-1.25-3.43171487-2.66911157-5.96962588-6.05908519-8.25-9.75 0-.66 0-1.32 0-2-.66 0-1.32 0-2 0-3.80236542-10.43387178-4.71377153-20.66981983 0-31 9.48412336-15.50578898 27.70118887-22.62006952 44.7578125-14.37890625z" fill="#cfbcae" transform="translate(929.757813 336.621094)"/><path d="m0 0c2.81800429 1.73132289 5.23470877 3.65276097 7.3125 6.25v2h2c4.59225513 8.261959 4.59225513 8.261959 4 13l2.5625.0625c4.80593418 1.31070932 7.51139487 3.96058363 10.4375 7.9375.9375 3.4375.9375 3.4375 1 6-2.97.495-2.97.495-6 1-.33 1.32-.66 2.64-1 4h2v3c-4.83295499 2.41647749-11.65467221 1.36483465-16.6875 0-.763125-.33-1.52625-.66-2.3125-1v2c-7.29584352 3.61563927-13.85645462 5.16017633-22 4-2.98339932-1.06484407-5.28219473-2.32750445-8-4 0-.66 0-1.32 0-2-1.32-.66-2.64-1.32-4-2 0-.66 0-1.32 0-2-.66 0-1.32 0-2 0-1.65-3.63-3.3-7.26-5-11l4.8125-.75c3.16865966-.49381709 4.71520746-.76949368 6.984375-3.078125 1.8777048-3.38962295 1.92327324-6.40077617 1.203125-10.171875-1.87015094-2.43119623-3.28138345-3.64069173-6-5 .3259949-3.04261908.97895261-3.9801219 3.25-6.125 7.57152652-5.16240444 19.04183902-6.14858092 27.4375-2.125z" fill="#030303" transform="translate(1148.6875 216.75)"/><path d="m0 0c8.80960474-.74975359 17.18321725 3.53914407 24 9v2h2v2h2v2h2c2 3 2 3 2 6h2c4.35076051 14.37304813 4.79744386 28.79117441-2.1796875 42.43359375-5.10125064 9.49559383-10.84416527 18.60218541-16.8203125 27.56640625-.66 0-1.32 0-2 0-.66 1.98-1.32 3.96-2 6-.66 0-1.32 0-2 0-.66 1.98-1.32 3.96-2 6-.66 0-1.32 0-2 0-.23074219.69351563-.46148438 1.38703125-.69921875 2.1015625-1.57014832 3.4986488-3.735067 6.30197545-6.11328125 9.2734375-.90342048 1.14628764-1.80577493 2.29341629-2.70703125 3.44140625-.43006348.54672363-.86012695 1.09344727-1.30322266 1.65673828-1.464161 1.89897613-2.82776568 3.85768604-4.17724609 5.83935547-.66.886875-1.32 1.77375-2 2.6875-.66 0-1.32 0-2 0-.226875.70125-.45375 1.4025-.6875 2.125-1.3125 2.875-1.3125 2.875-3.8125 5.6875-2.50087426 2.83432416-3.10014832 5.3659158-3.83984375 9.0859375-1.2268877 3.9057135-3.81573181 7.19530274-6.66015625 10.1015625-.66 0-1.32 0-2 0-.66 1.65-1.32 3.3-2 5-.66 0-1.32 0-2 0-.99 1.98-.99 1.98-2 4-8.01642178-1.96629213-8.01642178-1.96629213-10-5 0-1.32 0-2.64 0-4-1.32.33-2.64.66-4 1 .63228516-.72316406.63228516-.72316406 1.27734375-1.4609375.54785156-.63164062 1.09570313-1.26328125 1.66015625-1.9140625.54527344-.62648438 1.09054687-1.25296875 1.65234375-1.8984375 1.47974249-1.68288584 1.47974249-1.68288584 2.41015625-3.7265625h2l.6875-2.125c1.95012178-4.27169532 4.55037313-7.71703092 8.5-10.3125 1.8125-.5625 1.8125-.5625 3.8125.4375l2-5h2c0-.66 0-1.32 0-2h2c.27924316-.58861816.55848633-1.17723633.84619141-1.78369141 1.07260062-2.06031918 2.22802736-3.819348 3.61474609-5.67724609.47179688-.63679688.94359375-1.27359375 1.4296875-1.9296875.48984375-.65484375.9796875-1.3096875 1.484375-1.984375.96742731-1.29852542 1.93359152-2.59799292 2.8984375-3.8984375.46374023-.62358398.92748047-1.24716797 1.40527344-1.88964844 1.24888188-1.73625042 2.40349103-3.50731717 3.54785156-5.31347656.58523438-.83273437 1.17046875-1.66546875 1.7734375-2.5234375h2l2-6h2l.9375-2.375c1.0625-2.625 1.0625-2.625 2.0625-4.625h2c.66-1.98 1.32-3.96 2-6h2l.75-2.0625c1.49197908-3.50615083 3.31835511-6.65370368 5.25-9.9375h2c.268125-.70382812.53625-1.40765625.8125-2.1328125 1.67306834-4.03957948 3.72720687-7.86072616 5.75-11.734375 2.93209519-6.39005527 3.80080897-12.14337733 3.8125-19.0703125.03673828-1.13985352.03673828-1.13985352.07421875-2.30273438.03499327-6.82952026-1.98974896-11.80537172-6.3515625-17.04492187-6.1918222-5.40744549-12.75877635-9.08510408-20.09765625-12.71484375 0-.66 0-1.32 0-2-.66 0-1.32 0-2 0 .33-1.65.66-3.3 1-5z" fill="#030204" transform="translate(1170 252)"/><path d="m0 0c.99.33 1.98.66 3 1 .9921875 2.84375.9921875 2.84375 1.875 6.5 2.52929308 9.46321059 6.5062612 18.75417413 14.9375 24.375l2.1875 1.125c-3.3829828 23.25265393-29.74212577 48.75836598-47.85864258 62.39868164-20.25798124 14.69309494-46.02455769 27.71120173-71.75463867 24.24975586-2.49988698-.44762771-4.93011018-1.00650963-7.38671875-1.6484375-.67675781-.15984375-1.35351562-.3196875-2.05078125-.484375-7.21325566-2.13940248-13.56029463-7.58424594-17.4375-13.96484375-.9860263-2.16925787-1.81903936-4.27234528-2.51171875-6.55078125-.19078125-.62003906-.3815625-1.24007812-.578125-1.87890625-.5512469-2.7715469-.59202597-5.42167129-.609375-8.24609375-.01417969-1.05445313-.02835938-2.10890625-.04296875-3.1953125.23046875-2.6796875.23046875-2.6796875 2.23046875-4.6796875.18175781 1.30195313.36351562 2.60390625.55078125 3.9453125.25336593 1.72664187.50730235 3.4532001.76171875 5.1796875.11794922.8559375.23589844 1.711875.35742188 2.59375.74632243 4.97548287 1.81685812 8.84774126 4.33007812 13.28125.33.99.66 1.98 1 3h2v2c2.92638747 1.50712334 5.88698003 2.82631086 8.9375 4.0625 1.25103516.51240234 1.25103516.51240234 2.52734375 1.03515625 17.50564999 6.23082457 37.69011833-.56553196 53.97265625-7.578125 30.80811157-14.96279377 55.15423734-40.66889826 69.5625-71.51953125-.43570312-.3403125-.87140625-.680625-1.3203125-1.03125-6.84861554-5.57376503-11.60882271-11.67741506-14.6796875-19.96875-.5878125-1.4540625-.5878125-1.4540625-1.1875-2.9375-1.01939067-3.8423187-.94930573-7.09513389-.8125-11.0625z" fill="#120a38" transform="translate(1027 423)"/><path d="m0 0c2.475.495 2.475.495 5 1-.03552979.84594727-.07105957 1.69189453-.10766602 2.56347656-.13074161 3.19804018-.25475683 6.39625755-.37451171 9.59472656-.05272716 1.37314964-.10798331 2.74620497-.16601563 4.11914063-1.13145576 23.25266862-1.13145576 23.25266862 8.64819336 43.72265625 5.85791506 4.60837936 11.30902131 6.55361284 18.765625 6.46484375 10.93735537-1.5719146 19.69601808-8.87377105 27.234375-16.46484375.69609375-.66 1.3921875-1.32 2.109375-2 6.33700968-6.09138915 11.6473717-12.96597403 16.890625-20 .66.33 1.32.66 2 1-4.88842 8.5891605-10.75613734 15.49567369-17.60449219 22.55322266-1.20529552 1.24957684-2.38497885 2.52376477-3.55957031 3.80224609-8.46521557 9.00517788-17.82329696 14.54782673-30.2734375 15.01953125-7.95675927-.15494262-12.57007732-2.30852179-18.3125-7.6875-11.5296935-12.42062436-10.65590915-28.02797279-10.4375-43.9375.01507786-1.92056239.02876076-3.84113627.04101562-5.76171875.03275118-4.6630485.08436116-9.32553535.14648438-13.98828125z" fill="#0d062d" transform="translate(1040 379)"/><path d="m0 0h36v138h38v2c-5.53588533.02464775-11.071739.04283496-16.60766602.05493164-1.88477128.0050408-3.76953863.01187334-5.65429687.02050781-2.70305347.01207672-5.40605542.01779123-8.10913086.0222168-.84791611.00516129-1.69583221.01032257-2.56944275.01564026-2.02017418.00019544-4.04024284-.0512344-6.0594635-.11329651-1-1-1-1-1.12304783-3.2626276.00138269-1.51404498.00138269-1.51404498.00279331-3.05867672-.00137466-1.15411377-.00274933-2.30822754-.00416565-3.49731445.00539292-1.91618386.00539292-1.91618386.01089478-3.8710785.00028187-1.34988401.00012414-2.69976817-.00044251-4.0496521-.00028797-3.67545671.00560874-7.35088106.01257396-11.02633023.00623356-3.83705189.00683734-7.67410444.00802541-11.51116061.00311331-7.27087197.0113267-14.54172898.02134949-21.81259435.01116114-8.27555896.01667159-16.55111862.02169543-24.82668323.01046439-17.02797088.02880987-34.05592115.05032361-51.08388221-11.22 0-22.44 0-34 0 0-.66 0-1.32 0-2z" fill="#0c0c0c" transform="translate(303 122)"/><path d="m0 0c5.53588533-.02464775 11.071739-.04283496 16.60766602-.05493164 1.88477128-.0050408 3.76953863-.01187334 5.65429687-.02050781 2.70305347-.01207672 5.40605542-.01779123 8.10913086-.0222168.84791611-.00516129 1.69583221-.01032257 2.56944275-.01564026 2.02017418-.00019544 4.04024284.0512344 6.0594635.11329651 1 1 1 1 1.12304783 3.82485294-.00138269 1.91225955-.00138269 1.91225955-.00279331 3.8631506.00085442.70730898.00170885 1.41461797.00258916 2.14336056.00165687 2.38769872-.00386991 4.77532833-.00931829 7.16302067-.00028185 1.7045593-.00012417 3.40911874.00044251 5.11367797.00028804 4.64236526-.00560984 9.28470491-.01257396 13.92706418-.00623235 4.84603203-.00683724 9.69206459-.00802541 14.53810001-.00311367 9.18333271-.01132753 18.36665357-.02134949 27.54998106-.01116004 10.45205972-.01667131 20.90411999-.02169543 31.35618418-.0104652 21.5068759-.02806532 43.01374112-.05032361 64.52060783-.66 0-1.32 0-2 0 0-56.76 0-113.52 0-172-12.54 0-25.08 0-38 0 0-.66 0-1.32 0-2z" fill="#5326fe" transform="translate(886 86)"/><path d="m0 0c4.49358953 1.1495229 7.07725553 3.42775676 10 7 .8125 3.3125.8125 3.3125 1 6-1.98.33-3.96.66-6 1-.33 1.32-.66 2.64-1 4h2v3c-2.55919182 1.27959591-4.45484028 1.16816536-7.3125 1.1875-1.41732422.02126953-1.41732422.02126953-2.86328125.04296875-3.0080359-.24546904-5.1351-.87647387-7.82421875-2.23046875-2.4575053-3.9788181-2.6079966-8.44923758-2-13 3.0305501-6.63834783 7.06661015-7.64021478 14-7z" fill="#ccb8aa" transform="translate(1165 239)"/><path d="m0 0 1.5625.5v2l2.375.8125c2.625 1.1875 2.625 1.1875 4.625 4.1875.67226891 6.94677871.67226891 6.94677871-1.875 10.9375-3.79812338 3.68641387-7.15395857 3.51420093-12.28125 3.48046875-3.88318098-.57074226-5.87511316-2.0957669-8.69921875-4.71484375-1.14453125-1.703125-1.14453125-1.703125-1.14453125-5.703125l4-2c-.226875-1.093125-.45375-2.18625-.6875-3.3125-.3125-3.6875-.3125-3.6875.6875-5.625 3.65045059-1.93930187 7.49403675-1.37141554 11.4375-.5625z" fill="#cebbac" transform="translate(1116.4375 222.5)"/><path d="m0 0c6.3651911 1.68490353 9.46378159 6.37273812 12.64453125 11.8125 5.89283562 11.24083485 8.28554133 22.33760454 5.19140625 34.87109375-1.60019864 4.43419531-3.96539106 8.58001563-6.8359375 12.31640625-.66 0-1.32 0-2 0-.26039063.58265625-.52078125 1.1653125-.7890625 1.765625-4.50987327 8.32144358-13.45932773 13.34791719-21.2109375 18.234375-.95648437.62132812-1.91296875 1.24265625-2.8984375 1.8828125-15.29352544 9.89581058-15.29352544 9.89581058-21.1015625 11.1171875v2c-1.69491614 1.40268922-3.457835 2.72390346-5.25 4-.97453125.70125-1.9490625 1.4025-2.953125 2.125-2.796875 1.875-2.796875 1.875-5.03125 2.875-2.31987962 1.31391412-2.7009351 2.5786891-3.765625 5-1.13679996 1.76954711-2.30544925 3.51891375-3.5 5.25-.6084375.89203125-1.216875 1.7840625-1.84375 2.703125-.5465625.67546875-1.093125 1.3509375-1.65625 2.046875-.66 0-1.32 0-2 0-.33 1.65-.66 3.3-1 5-.98692702-2.58255754-1.13878782-3.66377343-.06640625-6.26171875 10.39203841-16.762223 26.19372024-27.98022085 43.44140625-37.11328125 14.74206165-7.98066495 30.08107398-18.17850607 35.1171875-35.0234375 2.21566193-11.35100652.59795976-22.88614969-5.43359375-32.7890625-2.76248966-3.90716769-5.05557139-7.14381843-9.05859375-9.8125 0-.66 0-1.32 0-2z" fill="#1a0a60" transform="translate(966 378)"/><path d="m0 0c1.90625 1.97265625 1.90625 1.97265625 3 4-.24796367 2.16968209-.44233607 3.44233607-2 5-4.20828093.30792299-7.68240952-.40561531-11.734375-1.48046875-7.59782117-1.74225899-14.82262659-2.04668885-22.265625.48046875-.33.33-.66.66-1 1-2.875.3125-2.875.3125-6 0-1.9375-1.8125-1.9375-1.8125-3-4 1-3 1-3 2.671875-4.1328125.68578125-.32742187 1.3715625-.65484375 2.078125-.9921875.67546875-.33257812 1.3509375-.66515625 2.046875-1.0078125 10.60117639-4.17280347 25.63202341-2.7802472 36.203125 1.1328125z" fill="#060509" transform="translate(1103 225)"/><path d="m0 0c6.16799612 2.57564673 10.29965081 8.82081398 12.9375 14.8125 2.32616097 7.35886144 2.13796551 14.74780026-1.25 21.6875-1.67174167 3.01214714-3.45679289 5.86860287-5.6875 8.5-.66 0-1.32 0-2 0v2c-8.61724209 8.12881541-19.24123806 13.99724222-29.35693359 20.02587891-6.73119444 4.04358478-13.00268985 8.35845374-19.17993164 13.18676757-2.46313477 1.78735352-2.46313477 1.78735352-5.46313477 2.78735352v2c-1.6436814 1.68933922-3.3142876 3.35259924-5 5-3.20648366 3.69035946-5.53164548 7.57412559-7.6875 11.9375-.30744141.59490234-.61488281 1.18980469-.93164062 1.80273438-3.19862002 6.4042392-3.55703997 12.63035146-3.94335938 19.63476562-.04318359.73605469-.08636719 1.47210938-.13085938 2.23046875-.10507861 1.79801193-.20626155 3.59625083-.30664062 5.39453125-.66 0-1.32 0-2 0-.0272367-2.52090778-.04695207-5.04151457-.0625-7.5625-.00837891-.70447266-.01675781-1.40894531-.02539062-2.13476562-.0737877-16.01192876 7.26195053-28.04158062 18.08789062-39.30273438 3.56289979-3 3.56289979-3 6-3 0-.66 0-1.32 0-2 2.15520159-1.61716545 4.30417911-3.10115212 6.5625-4.5625.67530762-.44400146 1.35061523-.88800293 2.04638672-1.34545898 5.20844026-3.39641508 10.52082619-6.59768138 15.87890625-9.75073243 5.45935815-3.23991964 10.63830886-6.80860386 15.80517578-10.49365234 2.19980667-1.50145534 4.29096912-2.74630096 6.70703125-3.84765625 0-.66 0-1.32 0-2h2c0-.66 0-1.32 0-2h2l.8125-1.6875c1.1875-2.3125 1.1875-2.3125 2.6875-4.4375 2.99498972-5.74039696 4.20867112-11.47019654 2.5625-17.8125-2.07298012-5.90145693-5.52892443-10.94520141-9.0625-16.0625-.99-1.485-.99-1.485-2-3z" fill="#2e12a7" transform="translate(955 387)"/><path d="m0 0c5.67830078-.02464705 11.35657069-.04283462 17.03491211-.05493164 1.93327374-.00504092 3.86654365-.01187355 5.79980469-.02050781 2.77255192-.0120762 5.54505361-.01779112 8.31762695-.0222168 1.30468483-.00774193 1.30468483-.00774193 2.63572693-.01564026 2.07098746-.00019534 4.14187256.05121483 6.21192932.11329651 1 1 1 1 1.12304783 3.18454075-.00092179.9724916-.00184359 1.94498319-.00279331 2.94694424.00137466 1.11204299.00274933 2.22408599.00416565 3.36982727-.00539292 1.84605331-.00539292 1.84605331-.01089478 3.72940063.00014603 1.28761734.00029205 2.57523468.00044251 3.90187073.00028796 3.54116398-.00560854 7.08229437-.01257396 10.62345052-.00623377 3.69691574-.00683736 7.39383217-.00802541 11.09075236-.00311325 7.00525249-.01132654 14.01048945-.02134949 21.01573509-.01116134 7.97326717-.01667164 15.94653506-.02169543 23.91980809-.01046424 16.40589921-.02806356 32.81178279-.05032361 49.21767032-.66.33-1.32.66-2 1 0-43.56 0-87.12 0-132-13.2.33-26.4.66-40 1 .33-.99.66-1.98 1-3z" fill="#522ffe" transform="translate(633 86)"/><path d="m0 0h1v130h39c0-2.64 0-5.28 0-8h1v10c-5.82071622.02464638-11.64140234.0428343-17.4621582.05493164-1.98177621.00504103-3.96354869.01187374-5.9453125.02050781-2.84205039.0120757-5.68405177.017791-8.52612305.0222168-1.3374955.00774193-1.3374955.00774193-2.70201111.01564026-2.12180115.00019526-4.24350294-.05119621-6.36439514-.11329651-1.65437962-1.65437962-1.1260522-3.59286009-1.12698364-5.87005615-.00422974-1.58149842-.00422974-1.58149842-.00854492-3.19494629.00202423-1.16674256.00404846-2.33348511.00613403-3.5355835-.00175232-1.22106445-.00350464-2.4421289-.00531006-3.70019531-.003659-3.35969503-.00278406-6.71932884.00037909-10.0790205.00252559-3.51306906.00018529-7.02613544-.00138617-10.5392046-.00182207-5.90493236.00058459-11.80985224.00534058-17.71478271.00543263-6.82376286.00368739-13.6474958-.00182641-20.47125793-.00454208-5.85567877-.005176-11.71134855-.00256133-17.56702852.00155803-3.49838938.00176969-6.99676472-.00153649-10.49515319-.00343203-3.90488084.00132898-7.80972837.00690079-11.71460724-.00202423-1.15864563-.00404846-2.31729126-.00613403-3.51104736.00281982-1.06561157.00563964-2.13122315.00854492-3.22912598.00037702-.92325954.00075405-1.84651909.0011425-2.79775619.12762265-2.61676235.54563932-5.02876607 1.12584114-7.58023453z" fill="#1b1b1b" transform="translate(263 130)"/><path d="m0 0c1.24523437.01804687 2.49046875.03609375 3.7734375.0546875 1.41152344.03480469 1.41152344.03480469 2.8515625.0703125v1c-.90621094.08636719-1.81242188.17273438-2.74609375.26171875-8.29702424.95701126-15.83424672 2.19020546-21.8671875 8.3984375-1.38671875 1.33984375-1.38671875 1.33984375-3.38671875 1.33984375-5.87961468 11.38844285-7.55527119 20.66111765-4 33 .34665557 1.66394675.68676972 3.32943851 1 5l3 1c1.0828125 1.3921875 1.0828125 1.3921875 2.1875 2.8125 3.57700005 4.52289368 8.45819597 6.40273199 13.8125 8.1875 2.5979122.14877911 5.15143149.23103235 7.75.25.6909375.020625 1.381875.04125 2.09375.0625 5.1322407.03858828 8.5534816-1.04800605 13.15625-3.3125 1.6642135-.67276716 3.32986582-1.34206835 5-2-4.18320403 5.09259622-10.62371413 7.72962887-17 9-7.90951884.77073586-13.90930015-.5062188-21-4-1.36125-.61875-1.36125-.61875-2.75-1.25-3.43171487-2.66911157-5.96962588-6.05908519-8.25-9.75 0-.66 0-1.32 0-2-.66 0-1.32 0-2 0-3.80236542-10.43387178-4.71377153-20.66981983 0-31 6.66154863-10.89110331 15.38265452-17.37013859 28.375-17.125z" fill="#1f2020" transform="translate(913.375 333.875)"/><path d="m0 0c2.475.495 2.475.495 5 1-.03552979.84594727-.07105957 1.69189453-.10766602 2.56347656-.13074161 3.19804018-.25475683 6.39625755-.37451171 9.59472656-.05272716 1.37314964-.10798331 2.74620497-.16601563 4.11914063-.66908856 15.91848963-.74871372 30.29407287 8.64819336 43.72265625.66.99 1.32 1.98 2 3-1.33333333-.66666667-2.66666667-1.33333333-4-2-.66-.226875-1.32-.45375-2-.6875-5.3837162-3.53306375-6.95357107-10.5353748-8.38696289-16.45166016-1.31757825-8.29796195-.91555552-16.73258028-.80053711-25.11083984.01507786-1.92056239.02876076-3.84113627.04101562-5.76171875.03275118-4.6630485.08436116-9.32553535.14648438-13.98828125z" fill="#211b3e" transform="translate(1040 379)"/><path d="m0 0c.99.33 1.98.66 3 1 .9921875 2.84375.9921875 2.84375 1.875 6.5 2.52929308 9.46321059 6.5062612 18.75417413 14.9375 24.375l2.1875 1.125c-.61557753 4.34144149-2.18141269 7.65062883-4.25 11.5-.58265625 1.1034375-1.1653125 2.206875-1.765625 3.34375-2.02910508 3.22739549-4.23792691 5.53128777-6.984375 8.15625-1.13623774 1.41228682-2.24489265 2.84764341-3.3125 4.3125-.51175781.69738281-1.02351563 1.39476562-1.55078125 2.11328125-.56267578.77923828-.56267578.77923828-1.13671875 1.57421875 0-4.01171644 1.94660695-6.23940596 4.125-9.4375 4.18568043-6.3012914 7.67008136-12.70020361 10.875-19.5625-.43570312-.3403125-.87140625-.680625-1.3203125-1.03125-6.84861554-5.57376503-11.60882271-11.67741506-14.6796875-19.96875-.391875-.969375-.78375-1.93875-1.1875-2.9375-1.01939067-3.8423187-.94930573-7.09513389-.8125-11.0625z" fill="#12073e" transform="translate(1027 423)"/><path d="m0 0c2.85618503 4.66944772 2.79009751 9.94677008 3.33984375 15.2734375.66869887 3.77478535 1.81983722 6.39188519 3.66015625 9.7265625.33.99.66 1.98 1 3h2v2c2.92638747 1.50712334 5.88698003 2.82631086 8.9375 4.0625.83402344.34160156 1.66804687.68320312 2.52734375 1.03515625 13.01769663 4.63341745 27.74493546 1.73957847 40.44140625-2.609375 2.09375-.48828125 2.09375-.48828125 5.09375.51171875-1.66464597.63036226-3.33184776 1.25397593-5 1.875-.928125.34804688-1.85625.69609375-2.8125 1.0546875-7.75630954 2.60444708-14.91265228 3.55867803-23.0625 3.9453125-1.53720703.10828125-1.53720703.10828125-3.10546875.21875-8.5881666.41467641-14.91318463-1.31904809-22.04296875-6.13671875-5.28497963-4.81969073-8.8784143-9.05557524-10.9765625-15.95703125-.19207031-.62003906-.38414062-1.24007812-.58203125-1.87890625-.54677742-2.77476765-.54991321-5.41969676-.54296875-8.24609375-.00386719-1.58167969-.00386719-1.58167969-.0078125-3.1953125.1328125-2.6796875.1328125-2.6796875 1.1328125-4.6796875z" fill="#1b0d61" transform="translate(900 502)"/><path d="m0 0c5.53588533-.02464775 11.071739-.04283496 16.60766602-.05493164 1.88477128-.0050408 3.76953863-.01187334 5.65429687-.02050781 2.70305347-.01207672 5.40605542-.01779123 8.10913086-.0222168.84791611-.00516129 1.69583221-.01032257 2.56944275-.01564026 2.02017418-.00019544 4.04024284.0512344 6.0594635.11329651 1.5648931 1.5648931 1.13494055 3.09829091 1.14526367 5.27270508.00637985.90796829.01275971 1.81593658.01933289 2.75141907.00111282.98848434.00222564 1.97696868.00337219 2.9954071.0049926 1.51517464.0049926 1.51517464.01008606 3.06095886.00507462 2.14284305.00740816 4.28569404.00724792 6.42854309.00218101 3.27902301.02031603 6.55770677.03930665 9.83666992.00293489 2.07877489.00491904 4.15755138.00585937 6.23632813.00718552.98241165.01437103 1.9648233.02177429 2.977005-.00307663.91742478-.00615326 1.83484955-.00932312 2.78007508.00142502.80528641.00285004 1.61057281.00431824 2.44026184-.24723816 2.22062683-.24723816 2.22062683-2.24723816 6.22062683 0-16.17 0-32.34 0-49-12.54 0-25.08 0-38 0 0-.66 0-1.32 0-2z" fill="#4f2bfe" transform="translate(931 86)"/><path d="m0 0 2 2c-1.45365269 1.17249353-2.91307419 2.33783816-4.375 3.5-.81210937.6496875-1.62421875 1.299375-2.4609375 1.96875-2.1640625 1.53125-2.1640625 1.53125-4.1640625 1.53125v2c-1.6436814 1.68933922-3.3142876 3.35259924-5 5-3.20648366 3.69035946-5.53164548 7.57412559-7.6875 11.9375-.30744141.59490234-.61488281 1.18980469-.93164062 1.80273438-3.19862002 6.4042392-3.55703997 12.63035146-3.94335938 19.63476562-.04318359.73605469-.08636719 1.47210938-.13085938 2.23046875-.10507861 1.79801193-.20626155 3.59625083-.30664062 5.39453125-.66 0-1.32 0-2 0-.0272367-2.52090778-.04695207-5.04151457-.0625-7.5625-.00837891-.70447266-.01675781-1.40894531-.02539062-2.13476562-.0737877-16.01192876 7.26195053-28.04158062 18.08789062-39.30273438 3.56289979-3 3.56289979-3 6-3 0-.66 0-1.32 0-2 2.5-1.625 2.5-1.625 5-3z" fill="#3212b7" transform="translate(914 461)"/><path d="m0 0 4 4c-.99.33-1.98.66-3 1-.33 33.99-.66 67.98-1 103-.33 0-.66 0-1 0-.02333048-13.93379272-.04091349-27.86758243-.05181217-41.80139065-.00522951-6.46928615-.01232839-12.93855924-.02362728-19.40783787-.01082647-6.23747448-.01683687-12.47493635-.01943779-18.71241951-.00185469-2.38555474-.00547612-4.77110876-.01085282-7.15665817-.00720723-3.32864971-.00826102-6.65724659-.00779533-9.98590278-.00359528-.99693375-.00719055-1.9938675-.01089478-3.02101136.00137467-.90168914.00274933-1.80337829.00416565-2.73239135-.00092179-.78813301-.00184358-1.57626601-.00279331-2.38828183.12304783-1.79410648.12304783-1.79410648 1.12304783-2.79410648z" fill="#380aff" transform="translate(816 152)"/><path d="m0 0c6.3651911 1.68490353 9.46378159 6.37273812 12.64453125 11.8125 6.18995701 11.80760656 7.88109478 22.40907768 4.98828125 35.47265625-.6328125 1.71484375-.6328125 1.71484375-2.6328125 2.71484375.02094727-.5983667.04189453-1.1967334.06347656-1.81323242.52599693-17.33293027.0204348-30.56445272-12.06347656-44.18676758-.99-.66-1.98-1.32-3-2 0-.66 0-1.32 0-2z" fill="#2d149c" transform="translate(966 378)"/><path d="m0 0c1.51173768 5.02112874-.12453889 8.32203288-2.5 12.875-.495.70125-.99 1.4025-1.5 2.125-.66 0-1.32 0-2 0-.26039063.58265625-.52078125 1.1653125-.7890625 1.765625-5.04922117 9.31662745-16.48818323 16.7149868-26.2109375 20.234375 3.46383123-5.10459339 8.29747448-8.22560829 13.3125-11.6875 9.53882766-6.96180567 14.88896093-14.57031594 19.6875-25.3125z" fill="#17085f" transform="translate(981 422)"/><path d="m0 0c-.53109375.23074219-1.0621875.46148437-1.609375.69921875-4.57606745 2.11267348-7.59457664 3.93894581-10.390625 8.30078125-1.87894454 5.63683363-1.74720942 11.75837174.125 17.375 2.6592645 3.7229703 5.73587115 6.55543557 9.875 8.625 2.55157655.0716735 5.07472971.09308442 7.625.0625.70640625-.00451172 1.4128125-.00902344 2.140625-.01367188 1.74482775-.01178937 3.489612-.02972488 5.234375-.04882812-2.84194886 2.84194886-4.75706869 2.98380458-8.75 3.25-6.37994858-.09365062-11.76992533-2.76992533-16.25-7.25-3.66106957-5.04892601-4.75645656-10.05718844-4.515625-16.25 1.12323734-5.99059915 4.8082516-10.76304744 9.640625-14.375 3.15955309-1.51109061 3.72179401-1.38998047 6.875-.375z" fill="#47413b" transform="translate(911 348)"/><path d="m0 0h1c-.53303839 5.33038387-1.49183541 7.98367082-4 13-14.19 0-28.38 0-43 0 .33-.66.66-1.32 1-2l41-1c1.32-3.3 2.64-6.6 4-10z" fill="#181818" transform="translate(441 249)"/><path d="m0 0c1.22244667.00333092 1.22244667.00333092 2.46958923.00672913.92087906.00007553 1.84175812.00015106 2.79054261.00022888 1.00103256.00516128 2.00206512.01032257 3.033432.01564026 1.01960312.00141494 2.03920624.00282989 3.08970642.00428772 3.27090841.00561756 6.54174946.01817303 9.81263733.03086853 2.21158756.00501273 4.42317618.00957603 6.63476563.01367187 5.43426794.01105229 10.86849635.0278075 16.30273437.04882813-.33 1.32-.66 2.64-1 4 0-.66 0-1.32 0-2-14.19.33-28.38.66-43 1v2c-.66 0-1.32 0-2 0-.5625-1.9375-.5625-1.9375-1-4 1-1 1-1 2.86659241-1.12025452z" fill="#2e2e2f" transform="translate(101.866592 85.879745)"/><path d="m0 0h2c-.06058594 1.15371094-.12117188 2.30742187-.18359375 3.49609375-.08477111 1.64712844-.16939371 3.29426452-.25390625 4.94140625-.04584229.87640137-.09168457 1.75280273-.13891602 2.65576172-.2663902 5.24281518-.48218221 10.48376221-.64233398 15.73095703-.05522827 1.69588257-.05522827 1.69588257-.11157227 3.42602539-.07088604 2.23202228-.13400211 4.46430621-.18896484 6.69677734-.03359619 1.02037354-.06719238 2.04074707-.10180664 3.09204102-.03758423 1.36439209-.03758423 1.36439209-.07592773 2.75634766-.30297852 2.20458984-.30297852 2.20458984-2.30297852 4.20458984-.38594492 2.1374401-.38594492 2.1374401-.5 4.5-.27777778 4.27777778-.27777778 4.27777778-2.5 6.5-.05410687-1.77049689-.09284119-3.54146849-.125-5.3125-.02320313-.98613281-.04640625-1.97226562-.0703125-2.98828125.1953125-2.69921875.1953125-2.69921875 2.1953125-5.69921875.40019199-2.074562.40019199-2.074562.50244141-4.37963867.05991119-.88068649.11982238-1.76137299.18154907-2.66874695.05529877-.94696243.11059753-1.89392487.16757202-2.86958313.06375824-.97238113.12751648-1.94476227.19320679-2.9466095.20179885-3.10716888.39115654-6.21495512.58023071-9.32292175.1345983-2.10617225.27000498-4.21229301.40625-6.31835938.33230125-5.16416271.65344651-10.32891336.96875-15.49414062z" fill="#141619" transform="translate(1034 307)"/><path d="m0 0 3 3c-.33.99-.66 1.98-1 3-14.19 0-28.38 0-43 0-.33-1.65-.66-3.3-1-5 .66.66 1.32 1.32 2 2 1.85536424.32889388 1.85536424.32889388 3.99072266.31884766.82069976.01986969 1.64139953.03973938 2.48696899.06021118 1.32975357.01732681 1.32975357.01732681 2.68637085.03500366.90720795.01936615 1.81441589.0387323 2.74911499.0586853 2.90384455.05988436 5.80772855.10621636 8.71182251.1522522 1.96616333.03817165 3.9323098.07722289 5.8984375.1171875 4.8253842.09615341 9.65084668.1801515 14.4765625.2578125-.495-1.98-.495-1.98-1-4z" fill="#151416" transform="translate(569 256)"/><path d="m0 0 2 1c-10.18170538 16.65823396-10.18170538 16.65823396-14.87890625 18.89453125-2.81647617 1.46788721-4.66345267 3.45789705-6.87109375 5.73046875-.79921875.81726563-1.5984375 1.63453125-2.421875 2.4765625-.60328125.62648438-1.2065625 1.25296875-1.828125 1.8984375-.66-.33-1.32-.66-2-1 .61875-.60303955.61875-.60303955 1.25-1.21826172 7.74908286-7.57827439 15.29456661-15.04693795 21.75-23.78173828.56203125-.74894531 1.1240625-1.49789063 1.703125-2.26953125.42796875-.57105469.8559375-1.14210938 1.296875-1.73046875z" fill="#231177" transform="translate(1118 408)"/><path d="m0 0c-1.32918914 3.98756741-3.05029257 4.55150696-6.609375 6.72265625-.56382385.34614853-1.12764771.69229706-1.70855713 1.04893494-1.19458893.73102434-2.39175052 1.45785868-3.59124756 2.18080139-1.82532085 1.10076047-3.64215321 2.21451861-5.45800781 3.33081054-9.66692256 5.89669624-9.66692256 5.89669624-14.6328125 7.71679688 1.14658041-3.43974122 1.65743212-3.68819754 4.6484375-5.453125.75345703-.45141357 1.50691406-.90282715 2.28320312-1.36791992.8063086-.47155518 1.61261719-.94311035 2.44335938-1.42895508 1.64378536-.97953599 3.28701556-1.96000421 4.9296875-2.94140625 1.20414551-.71567139 1.20414551-.71567139 2.43261719-1.44580078 3.82986344-2.30667865 7.56091466-4.75837887 11.29394531-7.21826172 1.96875-1.14453125 1.96875-1.14453125 3.96875-1.14453125z" fill="#2e11a4" transform="translate(947 441)"/><path d="m0 0 2 1c.33.99.66 1.98 1 3 4.2356085.16752496 8.47140574.32809332 12.70751953.48217773 1.4414787.05341817 2.88288788.10874745 4.32421875.16601563 2.06999725.08191661 4.14014599.15699023 6.21044922.23071289 1.2463623.04713135 2.49272461.0942627 3.77685547.14282227 2.90923848.19774838 2.90923848.19774838 4.98095703-1.02172852v3c-4.66305038.07405887-9.32575984.12855763-13.98925781.16479492-1.5869747.01510322-3.17390756.03558731-4.76074219.06152344-2.27875073.03631759-4.55695058.05339187-6.8359375.06665039-.71151215.01548386-1.42302429.03096771-2.15609741.04692078-2.00161743.00068664-2.00161743.00068664-5.25796509-.33988953-2-3-2-3-2-7z" fill="#151515" transform="translate(170 255)"/><path d="m0 0c2.85618503 4.66944772 2.79009751 9.94677008 3.33984375 15.2734375.66682955 3.76423308 1.88701393 6.37353588 3.66015625 9.7265625v3c-3-1-3-1-4.1328125-2.92578125-.32742188-.78761719-.65484375-1.57523438-.9921875-2.38671875-.33257813-.77988281-.66515625-1.55976562-1.0078125-2.36328125-1.59782319-4.28245404-2.00346776-7.8581535-1.9921875-12.44921875-.00386719-1.58167969-.00386719-1.58167969-.0078125-3.1953125.1328125-2.6796875.1328125-2.6796875 1.1328125-4.6796875z" fill="#231c42" transform="translate(900 502)"/><path d="m0 0c1.47273936 4.41821807-.08902222 7.12172944-2.07421875 11.21484375-2.45910806 4.66222065-4.97202736 8.22677774-8.92578125 11.78515625-.928125.928125-1.85625 1.85625-2.8125 2.8125-.721875.721875-1.44375 1.44375-2.1875 2.1875 1.4200049-3.98470764 3.33891843-7.15790208 5.75-10.625 3.81177179-5.60636508 7.12555967-11.36281936 10.25-17.375z" fill="#1e125b" transform="translate(1045 459)"/><path d="m0 0h1c.19412181 1.47831221.38012131 2.95769316.5625 4.4375.10441406.82371094.20882812 1.64742188.31640625 2.49609375.03996094.68191406.07992187 1.36382812.12109375 2.06640625-1 1-1 1-3.77563477 1.11352539-1.20970459-.00523682-2.41940918-.01047363-3.66577148-.01586914-1.30517578-.00322266-2.61035156-.00644531-3.95507813-.00976563-1.38867252-.00835661-2.77734439-.01682157-4.16601562-.02539062-1.39257656-.00501334-2.78515481-.00957653-4.17773438-.01367188-3.41996432-.01183378-6.83984406-.02831932-10.25976562-.04882812 0-.66 0-1.32 0-2h28c0-2.64 0-5.28 0-8z" fill="#4e26fe" transform="translate(969 252)"/><path d="m0 0 2 1c-7.9351526 6.38262275-15.53402321 8.31108509-25.65234375 8.3984375-2.79056039-.47360592-3.48194766-1.36477138-5.34765625-3.3984375 1.29035156-.03738281 2.58070313-.07476562 3.91015625-.11328125 1.71747524-.06569577 3.4349219-.13214185 5.15234375-.19921875 1.27133789-.03383789 1.27133789-.03383789 2.56835938-.06835938 6.90009152-.29305408 11.55870093-1.74551416 17.36914062-5.61914062z" fill="#3a3b3c" transform="translate(934 390)"/><path d="m0 0c2.475.495 2.475.495 5 1-.33 6.93-.66 13.86-1 21-1.32.33-2.64.66-4 1 0-7.59 0-15.18 0-23z" fill="#0f092a" transform="translate(1040 379)"/><path d="m0 0h1c-.42793184 3.99403051-.89458265 7.63103927-2 11.5-1.78728754 6.6156315-1.68592578 13.6895485-2 20.5-.66 0-1.32 0-2 0-.0272367-2.52090778-.04695207-5.04151457-.0625-7.5625-.00837891-.70447266-.01675781-1.40894531-.02539062-2.13476562-.02962763-6.42919559.34072178-12.34899326 3.15039062-18.24023438.36222656-.77214844.72445312-1.54429687 1.09765625-2.33984375.41572266-.85271484.41572266-.85271484.83984375-1.72265625z" fill="#3a1ac7" transform="translate(890 486)"/><path d="m0 0c6.38691704 1.69065451 9.85109897 7.02006799 13.3125 12.3125 2.35498549 4.28001513 2.49437026 8.88822606 2.6875 13.6875-1.63385608-2.45078412-2.65357792-4.44165123-3.75-7.125-2.47128229-5.64337597-5.41539366-11.75916884-10.4375-15.5078125-.598125-.45117188-1.19625-.90234375-1.8125-1.3671875 0-.66 0-1.32 0-2z" fill="#28157b" transform="translate(966 378)"/><path d="m0 0c9.53886786-.39141251 18.89491235-.23943821 28 3 .33.99.66 1.98 1 3-.66902344-.20496094-1.33804687-.40992188-2.02734375-.62109375-8.98740945-2.5213001-17.70154553-3.06034913-26.97265625-3.37890625 0-.66 0-1.32 0-2z" fill="#2b2831" transform="translate(1075 222)"/><path d="m0 0h2c4.39453125 11.71875 4.39453125 11.71875 5.18603516 13.85546875.54993775 1.44890617 1.12326248 2.88911812 1.71777343 4.3203125 1.52773503 3.74934175 2.35910613 5.95804431 1.09619141 9.82421875-2.65067249-5.70914075-5.01575156-11.49302606-7.25-17.375-.27021973-.70189453-.54043945-1.40378906-.81884766-2.12695312-1.11619238-2.97172764-1.93115234-5.29645201-1.93115234-8.49804688z" fill="#0f0f0f" transform="translate(173 161)"/><path d="m0 0c1.134375.020625 2.26875.04125 3.4375.0625v1c-1.40185547.30357422-1.40185547.30357422-2.83203125.61328125-3.37446819 1.09888848-3.37446819 1.09888848-4.7421875 4.1796875-.36738281 1.12019531-.73476563 2.24039063-1.11328125 3.39453125-.59941406 1.74410156-.59941406 1.74410156-1.2109375 3.5234375-.36351562 1.08539063-.72703125 2.17078125-1.1015625 3.2890625-.9537368 2.35763738-1.97206347 4.67361733-3 7-1.12414875-3.31404286-.89720238-5.06959111.3984375-8.29296875.31453125-.79470703.6290625-1.58941406.953125-2.40820313.33773438-.82048828.67546875-1.64097656 1.0234375-2.48632812.495-1.24813477.495-1.24813477 1-2.52148438 2.91856728-7.27862206 2.91856728-7.27862206 7.1875-7.35351562z" fill="#121214" transform="translate(467.5625 85.9375)"/><path d="m0 0c.99.33 1.98.66 3 1 .984375 2.87109375.984375 2.87109375 1.75 6.4375.39445312 1.76150391.39445312 1.76150391.796875 3.55859375.453125 3.00390625.453125 3.00390625-.546875 5.00390625-.66 0-1.32 0-2 0-2.45029331-5.71735105-3.33266291-9.79029227-3-16z" fill="#231464" transform="translate(1027 423)"/><path d="m0 0h1v18c-.66 0-1.32 0-2 0-1.01702117-3.0510635-1.16582083-5.24199061-1.1875-8.4375-.01417969-.94746094-.02835938-1.89492188-.04296875-2.87109375.23432357-2.73642269.83345492-4.35568748 2.23046875-6.69140625z" fill="#070809" transform="translate(884 357)"/><path d="m0 0c.99.33 1.98.66 3 1-.598125.99-1.19625 1.98-1.8125 3-2.22059624 3.8643116-3.71347123 7.79901802-5.1875 12-.99-.66-1.98-1.32-3-2 1.29322068-5.7607103 3.37988643-9.33195882 7-14z" fill="#191c1c" transform="translate(890 344)"/><path d="m0 0 3 3c-.33.99-.66 1.98-1 3-10.89 0-21.78 0-33 0 0-.33 0-.66 0-1l32-1c-.33-1.32-.66-2.64-1-4z" fill="#1c1a1f" transform="translate(569 256)"/><path d="m0 0h1c-.38373508 5.75602623-2.25841598 10.16828165-4.74609375 15.3515625-1.29425879 2.63682241-1.29425879 2.63682241-2.2890625 5.421875-.96484375 2.2265625-.96484375 2.2265625-2.96484375 3.2265625.59772664-3.43493576 1.47527784-6.44231496 2.84765625-9.64453125.35771484-.84111328.71542969-1.68222656 1.08398437-2.54882813.5597754-1.2964746.5597754-1.2964746 1.13085938-2.61914062.56557617-1.32547852.56557617-1.32547852 1.14257812-2.67773438.92740742-2.17177686 1.85915822-4.34157929 2.79492188-6.50976562z" fill="#0c0c0c" transform="translate(246 158)"/><path d="m0 0c3.56330162 1.45985485 5.32184716 3.32103963 7.625 6.375.88558594 1.15628906.88558594 1.15628906 1.7890625 2.3359375 3.73550732 5.39164357 3.73550732 5.39164357 3.2109375 8.5390625-.20625.5775-.4125 1.155-.625 1.75 0-.99 0-1.98 0-3-.66 0-1.32 0-2 0-1.22029573-1.87013996-2.35204064-3.79850747-3.4375-5.75-2.01264217-3.59928232-3.99641317-7.01688755-6.5625-10.25z" fill="#2c1c8b" transform="translate(955 387)"/><path d="m0 0c2.61161177 2.61161177 3.55542901 5.28914675 5 8.6875.515625 1.20011719 1.03125 2.40023437 1.5625 3.63671875 1.38721131 3.54718979 2.45657835 7.00204102 3.4375 10.67578125-4.12581808-3.43519201-5.51654904-7.1495816-7.25-12.0625-.268125-.71994141-.53625-1.43988281-.8125-2.18164062-1.10542958-3.03711136-1.9375-5.50017779-1.9375-8.75585938z" fill="#0f0f0f" transform="translate(110 111)"/><path d="m0 0c2.475.99 2.475.99 5 2v2c.598125.268125 1.19625.53625 1.8125.8125 2.1875 1.1875 2.1875 1.1875 3.5625 2.6875 2.2643766 2.09019379 4.70151684 2.6554382 7.625 3.5v1c-7.33578702-.30565779-11.42814765-3.76602557-16.734375-8.5703125-1.265625-1.4296875-1.265625-1.4296875-1.265625-3.4296875z" fill="#0d0636" transform="translate(905 528)"/><path d="m0 0c4.33492576 2.16746288 5.45209506 9.62369732 7 14 .74042763 2.32652134 1.39478712 4.63416785 2 7-3.25568924-2.66907856-4.60480908-6.15076544-6.1875-9.9375-.27263672-.62068359-.54527344-1.24136719-.82617188-1.88085938-1.42437474-3.35209995-1.98632812-5.47234123-1.98632812-9.18164062z" fill="#0e0e0e" transform="translate(153 214)"/><path d="m0 0h2c1.01085436 2.39175361 2.00879203 4.78761585 3 7.1875.28617188.67353516.57234375 1.34707031.8671875 2.04101562 1.52487549 3.72142232 2.50891682 6.73619846 2.1328125 10.77148438-2.6687814-2.6687814-3.32362727-5.31740129-4.5625-8.875-.43441406-1.23492187-.86882812-2.46984375-1.31640625-3.7421875-.81581616-2.4616613-1.55615522-4.85645817-2.12109375-7.3828125z" fill="#0f0f0f" transform="translate(159 125)"/><path d="m0 0h2c-.94974578 4.0827246-2.48464171 7.8767423-4.0625 11.75-.28166016.69738281-.56332031 1.39476562-.85351562 2.11328125-.69231619 1.7131892-1.38783436 3.42508384-2.08398438 5.13671875-.33 0-.66 0-1 0-.29823729-4.20591045.605068-6.85631548 2.4375-10.625 1.34438079-2.79600562 2.58064791-5.42944374 3.5625-8.375z" fill="#0f0f0f" transform="translate(427 177)"/><path d="m0 0c-.763125.45375-1.52625.9075-2.3125 1.375-1.92382814 1.16324492-3.81691224 2.3779415-5.6875 3.625-1.54766142.5827119-3.11192222 1.12264187-4.6875 1.625-.80824219.26039063-1.61648438.52078125-2.44921875.7890625-.61488281.19335938-1.22976563.38671875-1.86328125.5859375 0-.66 0-1.32 0-2 2.31-.66 4.62-1.32 7-2 0-.66 0-1.32 0-2 6.625-3.125 6.625-3.125 10-2z" fill="#120840" transform="translate(977 531)"/><path d="m0 0 2 3c-.78345715 1.17219543-1.57702836 2.33763668-2.375 3.5-.44085937.6496875-.88171875 1.299375-1.3359375 1.96875-.63808594.75796875-.63808594.75796875-1.2890625 1.53125-.66 0-1.32 0-2 0-.33 1.65-.66 3.3-1 5-.6796875-1.67578125-.6796875-1.67578125-1-4 1.1796875-2.54296875 1.1796875-2.54296875 2.875-5.1875.55429687-.88042969 1.10859375-1.76085937 1.6796875-2.66796875 1.4453125-2.14453125 1.4453125-2.14453125 2.4453125-3.14453125z" fill="#120748" transform="translate(908 486)"/><path d="m0 0c2.7920147 1.39600735 3.00162933 3.00416384 4.125 5.875.35320313.88429688.70640625 1.76859375 1.0703125 2.6796875.8046875 2.4453125.8046875 2.4453125.8046875 5.4453125-3-1-3-1-4.6875-3.625-1.44063149-3.70448098-1.54884374-6.43593765-1.3125-10.375z" fill="#2d1b7d" transform="translate(901 516)"/><path d="m0 0 2 1c-1.66666667 1.66666667-3.33333333 3.33333333-5 5-.45375.556875-.9075 1.11375-1.375 1.6875-2.55639356 2.06477941-5.47984729 2.54104745-8.625 3.3125 3.9700218-4.21814817 8.30840284-7.61227103 13-11z" fill="#22156e" transform="translate(1004 511)"/><path d="m0 0h2c.86772029 2.07772471 1.71873619 4.16243177 2.5625 6.25.47566406 1.16015625.95132813 2.3203125 1.44140625 3.515625.95379899 3.09704144 1.20592731 4.30759201-.00390625 7.234375-.81832722-1.89332534-1.62942268-3.78977733-2.4375-5.6875-.45246094-1.05574219-.90492188-2.11148438-1.37109375-3.19921875-1.0458808-2.73300654-1.72661373-5.23370462-2.19140625-8.11328125z" fill="#0f0f0f" transform="translate(560 233)"/><path d="m0 0c1.36420006 4.09260018-.2335485 6.47012659-1.9375 10.1875-.29068359.65419922-.58136719 1.30839844-.88085938 1.98242188-.71859405 1.61389156-1.44899942 3.22251467-2.18164062 4.83007812-.33 0-.66 0-1 0 .48052715-5.64619401 1.82737842-12.82737842 6-17z" fill="#0f0f0f" transform="translate(402 241)"/><path d="m0 0c.99.66 1.98 1.32 3 2-.61875.2475-1.2375.495-1.875.75-2.52078467 1.48281451-2.9102998 2.65863958-4.125 5.25-.99.66-1.98 1.32-3 2 .41421969-4.83256305 2.46413986-6.82679218 6-10z" fill="#1a0978" transform="translate(915 478)"/><path d="m0 0h3v2c-2.1171875 1.9453125-2.1171875 1.9453125-4.875 4.125-.90492188.72445313-1.80984375 1.44890625-2.7421875 2.1953125-2.3828125 1.6796875-2.3828125 1.6796875-4.3828125 1.6796875 1.49041773-3.79379058 3.69062512-5.68343758 7-8h2c0-.66 0-1.32 0-2z" fill="#280d91" transform="translate(956 432)"/><path d="m0 0 2 1c-.9019361 1.48819457-1.82214129 2.96532813-2.75 4.4375-.51046875.82371094-1.0209375 1.64742188-1.546875 2.49609375-1.8823432 2.28385218-2.8188796 2.72155082-5.703125 3.06640625.95545366-1.46022163 1.91446678-2.91811468 2.875-4.375.53367187-.81210937 1.06734375-1.62421875 1.6171875-2.4609375 1.5078125-2.1640625 1.5078125-2.1640625 3.5078125-4.1640625z" fill="#33189e" transform="translate(1118 408)"/><path d="m0 0 2 1c-1.09646058 1.79639296-2.20245148 3.58697154-3.3125 5.375-.92232422 1.49660156-.92232422 1.49660156-1.86328125 3.0234375-1.82421875 2.6015625-1.82421875 2.6015625-4.82421875 4.6015625 1.3255581-3.62276315 2.94346955-6.63505348 5.125-9.8125.53882813-.79019531 1.07765625-1.58039063 1.6328125-2.39453125.40992188-.59167969.81984375-1.18335938 1.2421875-1.79296875z" fill="#311e87" transform="translate(1037 473)"/><path d="m0 0 2 1c-4.30769231 5.78461538-4.30769231 5.78461538-7.8125 6.875-1.0828125.061875-1.0828125.061875-2.1875.125 4.625-5.75 4.625-5.75 8-8z" fill="#10044b" transform="translate(924 471)"/><path d="m0 0 4 1c-3.3 2.31-6.6 4.62-10 7-.66-.33-1.32-.66-2-1 2.48163901-2.61225159 5.02025145-4.96504977 8-7z" fill="#270e7d" transform="translate(956 451)"/><path d="m0 0h1c-.49730652 4.97306516-1.55302334 8.63799813-4 13-.99 0-1.98 0-3 0 0-.66 0-1.32 0-2 .46019531-.44988281.92039062-.89976562 1.39453125-1.36328125 1.82917275-1.86477708 2.44807142-3.36999316 3.29296875-5.82421875.25136719-.71542969.50273437-1.43085938.76171875-2.16796875.18175781-.54269531.36351562-1.08539063.55078125-1.64453125z" fill="#0e0e0e" transform="translate(441 249)"/><path d="m0 0c1.305239 3.91571701.32239848 5.03892997-1.4375 8.6875-.47308594.99386719-.94617188 1.98773438-1.43359375 3.01171875-.55880859 1.13888672-.55880859 1.13888672-1.12890625 2.30078125-.9113287-2.52057369-1.08517871-3.73325615-.2578125-6.32421875.37382812-.77988281.74765625-1.55976563 1.1328125-2.36328125.36867188-.78761719.73734375-1.57523438 1.1171875-2.38671875 1.0078125-1.92578125 1.0078125-1.92578125 2.0078125-2.92578125z" fill="#111" transform="translate(408 226)"/><path d="m0 0h2c1.76171875 2.3359375 1.76171875 2.3359375 3.6875 5.375.96486328 1.49660156.96486328 1.49660156 1.94921875 3.0234375.67482422 1.28777344.67482422 1.28777344 1.36328125 2.6015625-.33.66-.66 1.32-1 2-3.76315833-4.16998625-6.00503547-7.75009334-8-13z" fill="#4d24fe" transform="translate(836 119)"/><path d="m0 0c1.953125 1.17578125 1.953125 1.17578125 4 3 .609375 2.48046875.609375 2.48046875.75 5.1875.05671875.90105469.1134375 1.80210937.171875 2.73046875.02578125.68707031.0515625 1.37414062.078125 2.08203125-1.90389849-2.85584773-2.69462177-4.9311762-3.625-8.1875-.39058594-1.35158203-.39058594-1.35158203-.7890625-2.73046875-.19335938-.68707031-.38671875-1.37414062-.5859375-2.08203125z" fill="#200f6b" transform="translate(977 391)"/><path d="m0 0h1c.66 3.3 1.32 6.6 2 10-.66 0-1.32 0-2 0-.33.66-.66 1.32-1 2-.76173392-4.3164922-1.16063604-7.74433453 0-12z" fill="#1a1b1c" transform="translate(885 370)"/><path d="m0 0c3.53790403 3.69172595 3.59115883 7.09390595 4 12-1.66832577-2.50248865-2.62381674-4.41149187-3.625-7.1875-.26039063-.71542969-.52078125-1.43085937-.7890625-2.16796875-.19335938-.54269531-.38671875-1.08539063-.5859375-1.64453125z" fill="#111" transform="translate(502 87)"/><path d="m0 0 2 3c-.33.66-.66 1.32-1 2-.66 0-1.32 0-2 0-.66 1.32-1.32 2.64-2 4-.33-.99-.66-1.98-1-3 1.9375-3.1875 1.9375-3.1875 4-6z" fill="#250e88" transform="translate(976 432)"/><path d="m0 0h6c.33.66.66 1.32 1 2-1.65 1.98-3.3 3.96-5 6 0-3 0-3 2-6-1.32-.66-2.64-1.32-4-2z" fill="#5a25fe" transform="translate(1071 86)"/><path d="m0 0 1 2c.61875.28875 1.2375.5775 1.875.875 2.49296335 1.31980413 3.57647781 2.80221672 5.125 5.125-2.66666667-1.33333333-5.33333333-2.66666667-8-4 0-1.32 0-2.64 0-4z" fill="#150d44" transform="translate(1047 435)"/><path d="m0 0h2c1.32 2.64 2.64 5.28 4 8-4-2-4-2-6-4 0-1.32 0-2.64 0-4z" fill="#cfafa4" transform="translate(1101 234)"/><path d="m0 0c-1 3-1 3-4 5-2.1875-.375-2.1875-.375-4-1 5.75-4 5.75-4 8-4z" fill="#3517aa" transform="translate(947 441)"/><path d="m0 0 2 1c-.78345715 1.17219543-1.57702836 2.33763668-2.375 3.5-.44085937.6496875-.88171875 1.299375-1.3359375 1.96875-.42539063.5053125-.85078125 1.010625-1.2890625 1.53125-.66 0-1.32 0-2 0 1.37154504-2.95409701 2.98863724-5.44008376 5-8z" fill="#4a29ff" transform="translate(1028 86)"/></svg>